<svg width="683" height="434" viewBox="0 0 683 434" fill="none" xmlns="http://www.w3.org/2000/svg">
<path d="M682.959 74.4938C683.561 69.9653 677.335 66.2602 672.716 65.8485C670.507 65.6427 668.197 66.0544 666.088 65.231C661.569 63.5843 659.661 57.512 655.243 55.6595C651.929 54.2186 648.113 55.4536 644.799 57.2033C641.586 58.85 638.372 61.0113 634.757 61.2171C631.644 61.423 628.23 60.1879 625.418 61.8347C623.41 62.9668 622.305 65.4369 620.397 66.8777C618.589 68.3186 616.179 68.5244 613.87 68.7303C611.56 68.8332 609.25 68.8332 607.141 69.8624C605.033 70.8916 603.325 73.0529 603.727 75.4201L682.959 74.4938Z" fill="#F5F5F5"/>
<path d="M110.161 22.2105C110.764 17.682 104.538 13.9769 99.9184 13.5652C97.7091 13.3594 95.3994 13.771 93.2906 12.9477C88.7717 11.301 86.8637 5.2287 82.4452 3.37614C79.1313 1.93526 75.3154 3.1703 72.0015 4.91994C68.788 6.56666 65.5746 8.72798 61.9594 8.93382C58.8464 9.13966 55.4321 7.90462 52.6204 9.55133C50.612 10.6835 49.5073 13.1535 47.5993 14.5944C45.7918 16.0353 43.3817 16.2411 41.072 16.447C38.7623 16.5499 36.4527 16.5499 34.3438 17.5791C32.235 18.6083 30.5279 20.7696 30.9296 23.1368L110.161 22.2105Z" fill="#F5F5F5"/>
<path d="M456.411 24.6806C457.214 18.9171 449.281 14.1828 443.356 13.7711C440.544 13.5653 437.632 13.977 434.921 13.0507C429.096 10.9923 426.787 3.27329 421.163 0.803218C416.945 -1.04934 412.025 0.59738 407.908 2.7587C403.79 4.92001 399.774 7.59593 395.154 7.80177C391.137 8.11053 386.819 6.56673 383.305 8.52221C380.694 9.96309 379.388 13.0507 376.978 14.9032C374.668 16.6529 371.555 17.0646 368.643 17.1675C365.731 17.3733 362.718 17.3733 360.108 18.6084C357.497 19.8434 355.287 22.7252 355.789 25.7098L456.411 24.6806Z" fill="#EBEBEB"/>
<path d="M251.352 66.6719C251.955 61.9376 245.528 58.1295 240.607 57.7179C238.298 57.512 235.887 57.9237 233.678 57.1003C228.958 55.3507 227.05 49.0726 222.331 47.1171C218.816 45.5733 214.9 46.9113 211.485 48.6609C208.071 50.4106 204.757 52.5719 201.042 52.7777C197.728 52.9835 194.213 51.7485 191.401 53.3952C189.292 54.6303 188.188 57.1003 186.179 58.6441C184.271 60.085 181.761 60.3938 179.351 60.4967C176.941 60.5996 174.531 60.7025 172.321 61.6288C170.112 62.658 168.305 65.0252 168.807 67.3923L251.352 66.6719Z" fill="#EBEBEB"/>
<path d="M508.063 420.546H590.006V65.267H508.063L508.063 420.546Z" fill="#EBEBEB"/>
<path d="M549.833 139.342H574.737V90.1466H549.833V139.342Z" fill="white"/>
<path d="M561.551 139.333C561.752 139.333 561.852 128.321 561.852 114.736C561.852 101.15 561.752 90.1377 561.551 90.1377C561.35 90.1377 561.25 101.15 561.25 114.736C561.25 128.321 561.35 139.333 561.551 139.333Z" fill="#E0E0E0"/>
<path d="M549.801 107.222C549.801 107.428 555.425 107.531 562.253 107.531C569.182 107.531 574.706 107.428 574.706 107.222C574.706 107.016 569.082 106.914 562.253 106.914C555.425 106.914 549.801 107.016 549.801 107.222Z" fill="#E0E0E0"/>
<path d="M549.701 124.822C549.701 125.028 555.325 125.13 562.254 125.13C569.183 125.13 574.806 125.028 574.806 124.822C574.806 124.616 569.183 124.513 562.254 124.513C555.325 124.513 549.701 124.616 549.701 124.822Z" fill="#E0E0E0"/>
<path d="M549.833 203.581H574.737V154.385H549.833V203.581Z" fill="white"/>
<path d="M561.551 203.658C561.752 203.658 561.852 192.646 561.852 179.06C561.852 165.475 561.752 154.463 561.551 154.463C561.35 154.463 561.25 165.475 561.25 179.06C561.25 192.646 561.35 203.658 561.551 203.658Z" fill="#E0E0E0"/>
<path d="M549.801 171.547C549.801 171.753 555.425 171.856 562.253 171.856C569.182 171.856 574.706 171.753 574.706 171.547C574.706 171.341 569.082 171.239 562.253 171.239C555.425 171.136 549.801 171.341 549.801 171.547Z" fill="#E0E0E0"/>
<path d="M549.701 189.147C549.701 189.352 555.325 189.455 562.254 189.455C569.183 189.455 574.806 189.352 574.806 189.147C574.806 188.941 569.183 188.838 562.254 188.838C555.325 188.735 549.701 188.941 549.701 189.147Z" fill="#E0E0E0"/>
<path d="M549.833 267.922H574.737V218.727H549.833V267.922Z" fill="white"/>
<path d="M561.551 267.88C561.752 267.88 561.852 256.868 561.852 243.282C561.852 229.697 561.752 218.685 561.551 218.685C561.35 218.685 561.25 229.697 561.25 243.282C561.25 256.868 561.35 267.88 561.551 267.88Z" fill="#E0E0E0"/>
<path d="M549.801 235.769C549.801 235.975 555.425 236.078 562.253 236.078C569.182 236.078 574.706 235.975 574.706 235.769C574.706 235.563 569.082 235.46 562.253 235.46C555.425 235.46 549.801 235.563 549.801 235.769Z" fill="#E0E0E0"/>
<path d="M549.701 253.369C549.701 253.574 555.325 253.677 562.254 253.677C569.183 253.677 574.806 253.574 574.806 253.369C574.806 253.163 569.183 253.06 562.254 253.06C555.325 253.06 549.701 253.163 549.701 253.369Z" fill="#E0E0E0"/>
<path d="M549.833 332.161H574.737V282.965H549.833V332.161Z" fill="white"/>
<path d="M561.551 332.205C561.752 332.205 561.852 321.193 561.852 307.607C561.852 294.022 561.752 283.01 561.551 283.01C561.35 283.01 561.25 294.022 561.25 307.607C561.25 321.193 561.35 332.205 561.551 332.205Z" fill="#E0E0E0"/>
<path d="M549.801 300.094C549.801 300.3 555.425 300.403 562.253 300.403C569.182 300.403 574.706 300.3 574.706 300.094C574.706 299.888 569.082 299.785 562.253 299.785C555.425 299.785 549.801 299.888 549.801 300.094Z" fill="#E0E0E0"/>
<path d="M549.701 317.694C549.701 317.899 555.325 318.002 562.254 318.002C569.183 318.002 574.806 317.899 574.806 317.694C574.806 317.488 569.183 317.385 562.254 317.385C555.325 317.385 549.701 317.488 549.701 317.694Z" fill="#E0E0E0"/>
<path d="M473.124 420.546H532.874V65.267H473.124L473.124 420.546Z" fill="#E0E0E0"/>
<path d="M489.418 139.342H514.323V90.1466H489.418V139.342Z" fill="white"/>
<path d="M501.198 139.333C501.399 139.333 501.499 128.321 501.499 114.736C501.499 101.15 501.399 90.1377 501.198 90.1377C500.997 90.1377 500.897 101.15 500.897 114.736C500.897 128.321 500.997 139.333 501.198 139.333Z" fill="#E0E0E0"/>
<path d="M489.448 107.222C489.448 107.428 495.072 107.531 501.9 107.531C508.829 107.531 514.352 107.428 514.352 107.222C514.352 107.016 508.729 106.914 501.9 106.914C494.971 106.914 489.448 107.016 489.448 107.222Z" fill="#E0E0E0"/>
<path d="M489.248 124.822C489.248 125.028 494.872 125.13 501.801 125.13C508.73 125.13 514.353 125.028 514.353 124.822C514.353 124.616 508.73 124.513 501.801 124.513C494.872 124.513 489.248 124.616 489.248 124.822Z" fill="#E0E0E0"/>
<path d="M489.418 204.121H514.323V154.925H489.418V204.121Z" fill="white"/>
<path d="M501.198 204.173C501.399 204.173 501.499 193.16 501.499 179.575C501.499 165.99 501.399 154.977 501.198 154.977C500.997 154.977 500.897 165.99 500.897 179.575C500.897 193.16 500.997 204.173 501.198 204.173Z" fill="#E0E0E0"/>
<path d="M489.448 172.062C489.448 172.268 495.072 172.371 501.9 172.371C508.829 172.371 514.352 172.268 514.352 172.062C514.352 171.856 508.729 171.753 501.9 171.753C494.971 171.65 489.448 171.856 489.448 172.062Z" fill="#E0E0E0"/>
<path d="M489.248 189.661C489.248 189.867 494.872 189.97 501.801 189.97C508.73 189.97 514.353 189.867 514.353 189.661C514.353 189.455 508.73 189.352 501.801 189.352C494.872 189.25 489.248 189.455 489.248 189.661Z" fill="#E0E0E0"/>
<path d="M489.418 269.003H514.323V219.807H489.418V269.003Z" fill="white"/>
<path d="M501.198 269.012C501.399 269.012 501.499 258 501.499 244.414C501.499 230.829 501.399 219.817 501.198 219.817C500.997 219.817 500.897 230.829 500.897 244.414C500.897 257.897 500.997 269.012 501.198 269.012Z" fill="#E0E0E0"/>
<path d="M489.448 236.798C489.448 237.004 495.072 237.107 501.9 237.107C508.829 237.107 514.352 237.004 514.352 236.798C514.352 236.593 508.729 236.49 501.9 236.49C494.971 236.49 489.448 236.696 489.448 236.798Z" fill="#E0E0E0"/>
<path d="M489.248 254.501C489.248 254.707 494.872 254.809 501.801 254.809C508.73 254.809 514.353 254.707 514.353 254.501C514.353 254.295 508.73 254.192 501.801 254.192C494.872 254.089 489.248 254.295 489.248 254.501Z" fill="#E0E0E0"/>
<path d="M489.418 333.782H514.323V284.586H489.418V333.782Z" fill="white"/>
<path d="M501.198 333.749C501.399 333.749 501.499 322.737 501.499 309.151C501.499 295.566 501.399 284.553 501.198 284.553C500.997 284.553 500.897 295.566 500.897 309.151C500.897 322.737 500.997 333.749 501.198 333.749Z" fill="#E0E0E0"/>
<path d="M489.448 301.638C489.448 301.844 495.072 301.947 501.9 301.947C508.829 301.947 514.352 301.844 514.352 301.638C514.352 301.432 508.729 301.329 501.9 301.329C494.971 301.329 489.448 301.432 489.448 301.638Z" fill="#E0E0E0"/>
<path d="M489.248 319.237C489.248 319.443 494.872 319.546 501.801 319.546C508.73 319.546 514.353 319.443 514.353 319.237C514.353 319.031 508.73 318.928 501.801 318.928C494.872 318.928 489.248 319.031 489.248 319.237Z" fill="#E0E0E0"/>
<path d="M549.833 396.503H574.737V347.307H549.833V396.503Z" fill="white"/>
<path d="M561.551 396.427C561.752 396.427 561.852 385.415 561.852 371.829C561.852 358.244 561.752 347.231 561.551 347.231C561.35 347.231 561.25 358.244 561.25 371.829C561.25 385.415 561.35 396.427 561.551 396.427Z" fill="#E0E0E0"/>
<path d="M549.801 364.316C549.801 364.522 555.425 364.625 562.253 364.625C569.182 364.625 574.706 364.522 574.706 364.316C574.706 364.11 569.082 364.007 562.253 364.007C555.425 364.007 549.801 364.213 549.801 364.316Z" fill="#E0E0E0"/>
<path d="M549.701 381.915C549.701 382.121 555.325 382.224 562.254 382.224C569.183 382.224 574.806 382.121 574.806 381.915C574.806 381.709 569.183 381.607 562.254 381.607C555.325 381.607 549.701 381.812 549.701 381.915Z" fill="#E0E0E0"/>
<path d="M489.418 398.561H514.323V349.365H489.418V398.561Z" fill="white"/>
<path d="M501.198 398.588C501.399 398.588 501.499 387.576 501.499 373.99C501.499 360.405 501.399 349.393 501.198 349.393C500.997 349.393 500.897 360.405 500.897 373.99C500.897 387.576 500.997 398.588 501.198 398.588Z" fill="#E0E0E0"/>
<path d="M489.448 366.477C489.448 366.683 495.072 366.786 501.9 366.786C508.829 366.786 514.352 366.683 514.352 366.477C514.352 366.272 508.729 366.169 501.9 366.169C494.971 366.169 489.448 366.272 489.448 366.477Z" fill="#E0E0E0"/>
<path d="M489.248 384.077C489.248 384.283 494.872 384.385 501.801 384.385C508.73 384.385 514.353 384.283 514.353 384.077C514.353 383.871 508.73 383.768 501.801 383.768C494.872 383.768 489.248 383.871 489.248 384.077Z" fill="#E0E0E0"/>
<path d="M619.564 420.571H667.163V214.32H619.564V420.571Z" fill="#EBEBEB"/>
<path d="M643.787 257.275H658.248V228.663H643.787V257.275Z" fill="white"/>
<path d="M650.623 257.279C650.724 257.279 650.824 250.898 650.824 242.974C650.824 235.049 650.724 228.668 650.623 228.668C650.523 228.668 650.423 235.049 650.423 242.974C650.423 250.898 650.523 257.279 650.623 257.279Z" fill="#E0E0E0"/>
<path d="M643.795 238.651C643.795 238.754 647.008 238.857 651.025 238.857C655.042 238.857 658.255 238.754 658.255 238.651C658.255 238.548 655.042 238.445 651.025 238.445C647.008 238.445 643.795 238.548 643.795 238.651Z" fill="#E0E0E0"/>
<path d="M643.695 248.84C643.695 248.943 647.008 249.046 651.025 249.046C655.042 249.046 658.356 248.943 658.356 248.84C658.356 248.737 655.042 248.634 651.025 248.634C647.008 248.634 643.695 248.737 643.695 248.84Z" fill="#E0E0E0"/>
<path d="M643.787 294.651H658.248V266.039H643.787V294.651Z" fill="white"/>
<path d="M650.623 294.64C650.724 294.64 650.824 288.259 650.824 280.334C650.824 272.409 650.724 266.028 650.623 266.028C650.523 266.028 650.423 272.409 650.423 280.334C650.423 288.259 650.523 294.64 650.623 294.64Z" fill="#E0E0E0"/>
<path d="M643.795 276.011C643.795 276.114 647.008 276.217 651.025 276.217C655.042 276.217 658.255 276.114 658.255 276.011C658.255 275.908 655.042 275.805 651.025 275.805C647.008 275.805 643.795 275.908 643.795 276.011Z" fill="#E0E0E0"/>
<path d="M643.695 286.2C643.695 286.303 647.008 286.406 651.025 286.406C655.042 286.406 658.356 286.303 658.356 286.2C658.356 286.097 655.042 285.994 651.025 285.994C647.008 285.994 643.695 286.097 643.695 286.2Z" fill="#E0E0E0"/>
<path d="M643.787 331.924H658.248V303.312H643.787V331.924Z" fill="white"/>
<path d="M650.623 331.896C650.724 331.896 650.824 325.515 650.824 317.591C650.824 309.666 650.724 303.285 650.623 303.285C650.523 303.285 650.423 309.666 650.423 317.591C650.423 325.515 650.523 331.896 650.623 331.896Z" fill="#E0E0E0"/>
<path d="M643.795 313.268C643.795 313.371 647.008 313.474 651.025 313.474C655.042 313.474 658.255 313.371 658.255 313.268C658.255 313.165 655.042 313.062 651.025 313.062C647.008 313.062 643.795 313.165 643.795 313.268Z" fill="#E0E0E0"/>
<path d="M643.695 323.56C643.695 323.663 647.008 323.766 651.025 323.766C655.042 323.766 658.356 323.663 658.356 323.56C658.356 323.457 655.042 323.354 651.025 323.354C647.008 323.354 643.695 323.354 643.695 323.56Z" fill="#E0E0E0"/>
<path d="M643.787 369.3H658.248V340.688H643.787V369.3Z" fill="white"/>
<path d="M650.623 369.256C650.724 369.256 650.824 362.875 650.824 354.951C650.824 347.026 650.724 340.645 650.623 340.645C650.523 340.645 650.423 347.026 650.423 354.951C650.423 362.875 650.523 369.256 650.623 369.256Z" fill="#E0E0E0"/>
<path d="M643.795 350.628C643.795 350.731 647.008 350.834 651.025 350.834C655.042 350.834 658.255 350.731 658.255 350.628C658.255 350.525 655.042 350.422 651.025 350.422C647.008 350.422 643.795 350.525 643.795 350.628Z" fill="#E0E0E0"/>
<path d="M643.695 360.817C643.695 360.92 647.008 361.023 651.025 361.023C655.042 361.023 658.356 360.92 658.356 360.817C658.356 360.714 655.042 360.611 651.025 360.611C647.008 360.611 643.695 360.714 643.695 360.817Z" fill="#E0E0E0"/>
<path d="M599.308 420.571H633.953V214.32H599.308V420.571Z" fill="#E0E0E0"/>
<path d="M608.727 257.275H623.188V228.663H608.727V257.275Z" fill="white"/>
<path d="M615.577 257.279C615.677 257.279 615.778 250.898 615.778 242.974C615.778 235.049 615.677 228.668 615.577 228.668C615.477 228.668 615.376 235.049 615.376 242.974C615.376 250.898 615.477 257.279 615.577 257.279Z" fill="#E0E0E0"/>
<path d="M608.748 238.651C608.748 238.754 611.962 238.857 615.978 238.857C619.995 238.857 623.209 238.754 623.209 238.651C623.209 238.548 619.995 238.445 615.978 238.445C611.962 238.445 608.748 238.548 608.748 238.651Z" fill="#E0E0E0"/>
<path d="M608.648 248.84C608.648 248.943 611.962 249.046 615.979 249.046C619.995 249.046 623.309 248.943 623.309 248.84C623.309 248.737 619.995 248.634 615.979 248.634C611.962 248.634 608.648 248.737 608.648 248.84Z" fill="#E0E0E0"/>
<path d="M608.727 294.954H623.188V266.343H608.727V294.954Z" fill="white"/>
<path d="M615.577 294.948C615.677 294.948 615.778 288.567 615.778 280.642C615.778 272.717 615.677 266.336 615.577 266.336C615.477 266.336 615.376 272.717 615.376 280.642C615.376 288.567 615.477 294.948 615.577 294.948Z" fill="#E0E0E0"/>
<path d="M608.748 276.32C608.748 276.423 611.962 276.525 615.978 276.525C619.995 276.525 623.209 276.423 623.209 276.32C623.209 276.217 619.995 276.114 615.978 276.114C611.962 276.114 608.748 276.217 608.748 276.32Z" fill="#E0E0E0"/>
<path d="M608.648 286.509C608.648 286.612 611.962 286.715 615.979 286.715C619.995 286.715 623.309 286.612 623.309 286.509C623.309 286.406 619.995 286.303 615.979 286.303C611.962 286.303 608.648 286.406 608.648 286.509Z" fill="#E0E0E0"/>
<path d="M608.727 332.531H623.188V303.919H608.727V332.531Z" fill="white"/>
<path d="M615.577 332.514C615.677 332.514 615.778 326.133 615.778 318.208C615.778 310.283 615.677 303.902 615.577 303.902C615.477 303.902 615.376 310.283 615.376 318.208C615.376 326.133 615.477 332.514 615.577 332.514Z" fill="#E0E0E0"/>
<path d="M608.748 313.886C608.748 313.988 611.962 314.091 615.978 314.091C619.995 314.091 623.209 313.988 623.209 313.886C623.209 313.783 619.995 313.68 615.978 313.68C611.962 313.68 608.748 313.783 608.748 313.886Z" fill="#E0E0E0"/>
<path d="M608.648 324.178C608.648 324.28 611.962 324.383 615.979 324.383C619.995 324.383 623.309 324.28 623.309 324.178C623.309 324.075 619.995 323.972 615.979 323.972C611.962 323.972 608.648 323.972 608.648 324.178Z" fill="#E0E0E0"/>
<path d="M608.727 370.211H623.188V341.599H608.727V370.211Z" fill="white"/>
<path d="M615.577 370.183C615.677 370.183 615.778 363.802 615.778 355.877C615.778 347.952 615.677 341.571 615.577 341.571C615.477 341.571 615.376 347.952 615.376 355.877C615.376 363.802 615.477 370.183 615.577 370.183Z" fill="#E0E0E0"/>
<path d="M608.748 351.554C608.748 351.657 611.962 351.76 615.978 351.76C619.995 351.76 623.209 351.657 623.209 351.554C623.209 351.451 619.995 351.348 615.978 351.348C611.962 351.348 608.748 351.451 608.748 351.554Z" fill="#E0E0E0"/>
<path d="M608.648 361.743C608.648 361.846 611.962 361.949 615.979 361.949C619.995 361.949 623.309 361.846 623.309 361.743C623.309 361.64 619.995 361.537 615.979 361.537C611.962 361.537 608.648 361.64 608.648 361.743Z" fill="#E0E0E0"/>
<path d="M643.787 406.573H658.248V377.961H643.787V406.573Z" fill="white"/>
<path d="M650.623 406.616C650.724 406.616 650.824 400.235 650.824 392.31C650.824 384.386 650.724 378.005 650.623 378.005C650.523 378.005 650.423 384.386 650.423 392.31C650.423 400.132 650.523 406.616 650.623 406.616Z" fill="#E0E0E0"/>
<path d="M643.795 387.885C643.795 387.988 647.008 388.091 651.025 388.091C655.042 388.091 658.255 387.988 658.255 387.885C658.255 387.782 655.042 387.679 651.025 387.679C647.008 387.782 643.795 387.782 643.795 387.885Z" fill="#E0E0E0"/>
<path d="M643.695 398.177C643.695 398.28 647.008 398.383 651.025 398.383C655.042 398.383 658.356 398.28 658.356 398.177C658.356 398.074 655.042 397.971 651.025 397.971C647.008 397.971 643.695 398.074 643.695 398.177Z" fill="#E0E0E0"/>
<path d="M608.727 407.788H623.188V379.176H608.727V407.788Z" fill="white"/>
<path d="M615.577 407.748C615.677 407.748 615.778 401.367 615.778 393.443C615.778 385.518 615.677 379.137 615.577 379.137C615.477 379.137 615.376 385.518 615.376 393.443C615.376 401.367 615.477 407.748 615.577 407.748Z" fill="#E0E0E0"/>
<path d="M608.748 389.12C608.748 389.223 611.962 389.326 615.978 389.326C619.995 389.326 623.209 389.223 623.209 389.12C623.209 389.017 619.995 388.914 615.978 388.914C611.962 388.914 608.748 389.017 608.748 389.12Z" fill="#E0E0E0"/>
<path d="M608.648 399.412C608.648 399.515 611.962 399.618 615.979 399.618C619.995 399.618 623.309 399.515 623.309 399.412C623.309 399.309 619.995 399.206 615.979 399.206C611.962 399.206 608.648 399.309 608.648 399.412Z" fill="#E0E0E0"/>
<path d="M49.6077 208.187H0V422.98H49.6077V208.187Z" fill="#EBEBEB"/>
<path d="M24.3013 223.316H9.23828V253.06H24.3013V223.316Z" fill="white"/>
<path d="M17.1718 253.06C17.0714 253.06 16.9709 246.37 16.9709 238.137C16.9709 229.903 17.0714 223.213 17.1718 223.213C17.2722 223.213 17.3726 229.903 17.3726 238.137C17.3726 246.37 17.2722 253.06 17.1718 253.06Z" fill="#E0E0E0"/>
<path d="M24.3013 233.608C24.3013 233.711 20.887 233.814 16.7698 233.814C12.6526 233.814 9.23828 233.711 9.23828 233.608C9.23828 233.505 12.6526 233.402 16.7698 233.402C20.887 233.402 24.3013 233.505 24.3013 233.608Z" fill="#E0E0E0"/>
<path d="M24.302 244.312C24.302 244.415 20.8877 244.517 16.67 244.517C12.4524 244.517 9.03809 244.415 9.03809 244.312C9.03809 244.209 12.4524 244.106 16.67 244.106C20.9881 244.003 24.302 244.106 24.302 244.312Z" fill="#E0E0E0"/>
<path d="M24.3013 262.117H9.23828V291.861H24.3013V262.117Z" fill="white"/>
<path d="M17.1718 291.861C17.0714 291.861 16.9709 285.171 16.9709 276.937C16.9709 268.704 17.0714 262.014 17.1718 262.014C17.2722 262.014 17.3726 268.704 17.3726 276.937C17.3726 285.274 17.2722 291.861 17.1718 291.861Z" fill="#E0E0E0"/>
<path d="M24.3013 272.512C24.3013 272.615 20.887 272.717 16.7698 272.717C12.6526 272.717 9.23828 272.615 9.23828 272.512C9.23828 272.409 12.6526 272.306 16.7698 272.306C20.887 272.306 24.3013 272.409 24.3013 272.512Z" fill="#E0E0E0"/>
<path d="M24.302 283.112C24.302 283.215 20.8877 283.318 16.67 283.318C12.4524 283.318 9.03809 283.215 9.03809 283.112C9.03809 283.01 12.4524 282.907 16.67 282.907C20.9881 282.907 24.302 283.01 24.302 283.112Z" fill="#E0E0E0"/>
<path d="M24.3013 301.02H9.23828V330.764H24.3013V301.02Z" fill="white"/>
<path d="M17.1718 330.764C17.0714 330.764 16.9709 324.074 16.9709 315.841C16.9709 307.607 17.0714 300.917 17.1718 300.917C17.2722 300.917 17.3726 307.607 17.3726 315.841C17.3726 324.074 17.2722 330.764 17.1718 330.764Z" fill="#E0E0E0"/>
<path d="M24.3013 311.312C24.3013 311.415 20.887 311.518 16.7698 311.518C12.6526 311.518 9.23828 311.415 9.23828 311.312C9.23828 311.209 12.6526 311.107 16.7698 311.107C20.887 311.107 24.3013 311.209 24.3013 311.312Z" fill="#E0E0E0"/>
<path d="M24.302 322.016C24.302 322.119 20.8877 322.222 16.67 322.222C12.4524 322.222 9.03809 322.119 9.03809 322.016C9.03809 321.913 12.4524 321.81 16.67 321.81C20.9881 321.81 24.302 321.913 24.302 322.016Z" fill="#E0E0E0"/>
<path d="M24.3013 339.821H9.23828V369.565H24.3013V339.821Z" fill="white"/>
<path d="M17.1718 369.565C17.0714 369.565 16.9709 362.875 16.9709 354.642C16.9709 346.408 17.0714 339.718 17.1718 339.718C17.2722 339.718 17.3726 346.408 17.3726 354.642C17.3726 362.978 17.2722 369.565 17.1718 369.565Z" fill="#E0E0E0"/>
<path d="M24.3013 350.216C24.3013 350.319 20.887 350.422 16.7698 350.422C12.6526 350.422 9.23828 350.319 9.23828 350.216C9.23828 350.113 12.6526 350.01 16.7698 350.01C20.887 350.01 24.3013 350.113 24.3013 350.216Z" fill="#E0E0E0"/>
<path d="M24.302 360.817C24.302 360.92 20.8877 361.023 16.67 361.023C12.4524 361.023 9.03809 360.92 9.03809 360.817C9.03809 360.714 12.4524 360.611 16.67 360.611C20.9881 360.611 24.302 360.714 24.302 360.817Z" fill="#E0E0E0"/>
<path d="M70.5954 208.187H34.4441V422.98H70.5954V208.187Z" fill="#E0E0E0"/>
<path d="M60.7542 223.316H45.6912V253.06H60.7542V223.316Z" fill="white"/>
<path d="M53.6244 253.06C53.524 253.06 53.4236 246.37 53.4236 238.137C53.4236 229.903 53.524 223.213 53.6244 223.213C53.7248 223.213 53.8253 229.903 53.8253 238.137C53.8253 246.37 53.7248 253.06 53.6244 253.06Z" fill="#E0E0E0"/>
<path d="M60.7542 233.608C60.7542 233.711 57.3399 233.814 53.2227 233.814C49.1055 233.814 45.6912 233.711 45.6912 233.608C45.6912 233.505 49.1055 233.402 53.2227 233.402C57.4403 233.402 60.7542 233.505 60.7542 233.608Z" fill="#E0E0E0"/>
<path d="M60.8547 244.312C60.8547 244.415 57.4404 244.517 53.2228 244.517C49.0051 244.517 45.5908 244.415 45.5908 244.312C45.5908 244.209 49.0051 244.106 53.2228 244.106C57.4404 244.003 60.8547 244.106 60.8547 244.312Z" fill="#E0E0E0"/>
<path d="M60.7542 262.426H45.6912V292.169H60.7542V262.426Z" fill="white"/>
<path d="M53.6244 292.169C53.524 292.169 53.4236 285.48 53.4236 277.246C53.4236 269.012 53.524 262.323 53.6244 262.323C53.7248 262.323 53.8253 269.012 53.8253 277.246C53.8253 285.583 53.7248 292.169 53.6244 292.169Z" fill="#E0E0E0"/>
<path d="M60.7542 272.82C60.7542 272.923 57.3399 273.026 53.2227 273.026C49.1055 273.026 45.6912 272.923 45.6912 272.82C45.6912 272.718 49.1055 272.615 53.2227 272.615C57.4403 272.615 60.7542 272.718 60.7542 272.82Z" fill="#E0E0E0"/>
<path d="M60.8547 283.421C60.8547 283.524 57.4404 283.627 53.2228 283.627C49.0051 283.627 45.5908 283.524 45.5908 283.421C45.5908 283.318 49.0051 283.215 53.2228 283.215C57.4404 283.215 60.8547 283.318 60.8547 283.421Z" fill="#E0E0E0"/>
<path d="M60.7542 301.638H45.6912V331.382H60.7542V301.638Z" fill="white"/>
<path d="M53.6244 331.382C53.524 331.382 53.4236 324.692 53.4236 316.458C53.4236 308.225 53.524 301.535 53.6244 301.535C53.7248 301.535 53.8253 308.225 53.8253 316.458C53.8253 324.692 53.7248 331.382 53.6244 331.382Z" fill="#E0E0E0"/>
<path d="M60.7542 311.93C60.7542 312.033 57.3399 312.136 53.2227 312.136C49.1055 312.136 45.6912 312.033 45.6912 311.93C45.6912 311.827 49.1055 311.724 53.2227 311.724C57.4403 311.724 60.7542 311.827 60.7542 311.93Z" fill="#E0E0E0"/>
<path d="M60.8547 322.634C60.8547 322.737 57.4404 322.84 53.2228 322.84C49.0051 322.84 45.5908 322.737 45.5908 322.634C45.5908 322.531 49.0051 322.428 53.2228 322.428C57.4404 322.428 60.8547 322.531 60.8547 322.634Z" fill="#E0E0E0"/>
<path d="M60.7542 340.85H45.6912V370.594H60.7542V340.85Z" fill="white"/>
<path d="M53.6244 370.594C53.524 370.594 53.4236 363.905 53.4236 355.671C53.4236 347.437 53.524 340.748 53.6244 340.748C53.7248 340.748 53.8253 347.437 53.8253 355.671C53.8253 363.905 53.7248 370.594 53.6244 370.594Z" fill="#E0E0E0"/>
<path d="M60.7542 351.142C60.7542 351.245 57.3399 351.348 53.2227 351.348C49.1055 351.348 45.6912 351.245 45.6912 351.142C45.6912 351.04 49.1055 350.937 53.2227 350.937C57.4403 350.937 60.7542 351.04 60.7542 351.142Z" fill="#E0E0E0"/>
<path d="M60.8547 361.846C60.8547 361.949 57.4404 362.052 53.2228 362.052C49.0051 362.052 45.5908 361.949 45.5908 361.846C45.5908 361.743 49.0051 361.64 53.2228 361.64C57.4404 361.64 60.8547 361.64 60.8547 361.846Z" fill="#E0E0E0"/>
<path d="M24.3013 378.725H9.23828V408.469H24.3013V378.725Z" fill="white"/>
<path d="M17.1718 408.469C17.0714 408.469 16.9709 401.779 16.9709 393.545C16.9709 385.312 17.0714 378.622 17.1718 378.622C17.2722 378.622 17.3726 385.312 17.3726 393.545C17.3726 401.779 17.2722 408.469 17.1718 408.469Z" fill="#E0E0E0"/>
<path d="M24.3013 389.017C24.3013 389.12 20.887 389.223 16.7698 389.223C12.6526 389.223 9.23828 389.12 9.23828 389.017C9.23828 388.914 12.6526 388.811 16.7698 388.811C20.887 388.811 24.3013 388.914 24.3013 389.017Z" fill="#E0E0E0"/>
<path d="M24.302 399.721C24.302 399.824 20.8877 399.926 16.67 399.926C12.4524 399.926 9.03809 399.824 9.03809 399.721C9.03809 399.618 12.4524 399.515 16.67 399.515C20.9881 399.515 24.302 399.618 24.302 399.721Z" fill="#E0E0E0"/>
<path d="M60.7542 379.96H45.6912V409.704H60.7542V379.96Z" fill="white"/>
<path d="M53.6244 409.704C53.524 409.704 53.4236 403.014 53.4236 394.78C53.4236 386.547 53.524 379.857 53.6244 379.857C53.7248 379.857 53.8253 386.547 53.8253 394.78C53.8253 403.117 53.7248 409.704 53.6244 409.704Z" fill="#E0E0E0"/>
<path d="M60.7542 390.355C60.7542 390.458 57.3399 390.561 53.2227 390.561C49.1055 390.561 45.6912 390.458 45.6912 390.355C45.6912 390.252 49.1055 390.149 53.2227 390.149C57.4403 390.149 60.7542 390.252 60.7542 390.355Z" fill="#E0E0E0"/>
<path d="M60.8547 400.956C60.8547 401.058 57.4404 401.161 53.2228 401.161C49.0051 401.161 45.5908 401.058 45.5908 400.956C45.5908 400.853 49.0051 400.75 53.2228 400.75C57.4404 400.75 60.8547 400.853 60.8547 400.956Z" fill="#E0E0E0"/>
<path fill-rule="evenodd" clip-rule="evenodd" d="M68.4758 421.422H638.95C642.244 421.422 644.939 424.117 644.939 427.411C644.939 430.705 642.244 433.4 638.95 433.4H68.4758C65.1817 433.4 62.4866 430.705 62.4866 427.411C62.4866 424.117 65.1817 421.422 68.4758 421.422Z" fill="#81B7CF"/>
<path d="M160.111 374.556C160.41 372.759 162.057 371.711 163.704 372.01C165.501 372.31 166.699 373.957 166.4 375.604L161.908 401.807C161.608 403.603 159.961 404.652 158.164 404.502C156.517 404.202 155.32 402.555 155.619 400.759L160.111 374.556Z" fill="#311733"/>
<path fill-rule="evenodd" clip-rule="evenodd" d="M104.86 382.641L113.694 393.721L190.506 391.475L347.424 387.133L444.749 389.379L454.033 399.561L587.742 391.625L608.555 382.492C607.656 382.641 606.758 382.641 605.86 382.641H602.116C599.421 355.69 576.512 334.578 548.962 334.578C521.262 334.578 498.503 355.54 495.658 382.641H275.254C272.559 355.69 249.65 334.578 222.1 334.578C194.399 334.578 171.64 355.54 168.795 382.641H104.86Z" fill="#210D23"/>
<path fill-rule="evenodd" clip-rule="evenodd" d="M79.2563 155.05H83.299L91.085 130.345C92.8818 124.805 95.8764 119.864 101.566 119.864L443.851 120.612C449.69 120.612 452.685 125.553 454.332 131.093L461.819 155.05H520.363C524.705 155.05 531.144 158.943 534.588 163.585C548.213 186.943 571.122 238.151 573.518 242.643C585.945 248.482 617.688 254.921 625.025 261.209C630.865 266.3 632.961 273.338 632.961 280.375V355.39C632.961 370.363 620.683 382.641 605.71 382.641H601.967C599.271 355.69 576.363 334.578 548.812 334.578C521.112 334.578 498.353 355.54 495.508 382.641H275.254C272.559 355.69 249.65 334.578 222.1 334.578C194.399 334.578 171.64 355.54 168.795 382.641H79.2563C71.9195 382.641 65.7805 376.502 65.7805 369.165V168.526C65.7805 161.04 71.9195 155.05 79.2563 155.05Z" fill="#EAE8ED"/>
<path fill-rule="evenodd" clip-rule="evenodd" d="M83.2988 154.901L91.0848 130.345C92.8816 124.805 95.8762 119.864 101.566 119.864L443.851 120.612C449.69 120.612 452.685 125.553 454.332 131.093L461.669 154.901H83.2988Z" fill="#F2EFF2"/>
<path fill-rule="evenodd" clip-rule="evenodd" d="M531.743 160.59C532.791 161.489 533.689 162.537 534.438 163.585C548.064 186.943 570.972 238.151 573.368 242.643C585.796 248.482 617.539 254.921 624.875 261.209C630.715 266.3 632.811 273.338 632.811 280.375V285.616H65.7805V271.391H451.188V174.815H65.7805V168.526C65.7805 165.531 66.6789 162.836 68.3259 160.59H531.743ZM632.811 322.3V355.39C632.811 370.363 620.533 382.641 605.56 382.641H601.817C599.122 355.69 576.213 334.578 548.662 334.578C520.962 334.578 498.203 355.54 495.358 382.641H275.254C272.559 355.69 249.65 334.578 222.1 334.578C194.399 334.578 171.64 355.54 168.795 382.641H79.2563C71.9195 382.641 65.7805 376.502 65.7805 369.165V322.3H632.811Z" fill="#0086D7"/>
<path fill-rule="evenodd" clip-rule="evenodd" d="M482.332 382.641H477.99C480.385 370.513 486.075 353.444 499.85 338.47C518.716 318.257 547.016 319.604 555.4 320.652L555.7 249.53L520.214 179.606L450.888 178.857V382.641H447.145V174.665L521.412 175.414C522.16 175.414 522.909 175.863 523.208 176.611L559.593 248.033C559.743 248.332 559.892 248.782 559.743 249.081L559.293 323.048C559.293 324.246 558.395 325.144 557.197 325.144C557.047 325.144 557.047 325.144 556.898 325.144C556.748 325.144 523.358 319.005 502.695 341.315C490.118 355.24 484.727 371.112 482.332 382.641ZM282.741 382.641H278.997V174.665H282.741V382.641Z" fill="#D9D9D9"/>
<path fill-rule="evenodd" clip-rule="evenodd" d="M560.042 285.615H555.85L555.999 249.53L520.513 179.606L451.188 178.857V174.815V174.665L521.711 175.414C522.46 175.414 523.208 175.863 523.508 176.611L559.892 248.033C560.042 248.332 560.192 248.782 560.042 249.081V285.615ZM451.188 285.615H447.444V271.391H451.188V285.615ZM282.741 285.615H278.997V271.391H282.741V285.615ZM478.139 382.641C480.535 370.513 486.225 353.444 500 338.47C508.535 329.337 519.016 324.546 528.748 322.3H559.892V323.048C559.892 324.246 558.994 325.144 557.796 325.144C557.646 325.144 557.646 325.144 557.497 325.144C557.347 325.144 523.957 319.005 503.294 341.315C490.417 355.24 484.877 370.962 482.631 382.491H478.139V382.641ZM451.188 322.3V382.641H447.444V322.3H451.188ZM278.997 382.641V322.3H282.741V382.641H278.997Z" fill="#007AC2"/>
<path fill-rule="evenodd" clip-rule="evenodd" d="M221.95 428.908C244.409 428.908 262.677 410.641 262.677 388.181C262.677 365.722 244.409 347.454 221.95 347.454C199.49 347.454 181.073 365.722 181.073 388.181C181.073 410.641 199.49 428.908 221.95 428.908Z" fill="#523459"/>
<path fill-rule="evenodd" clip-rule="evenodd" d="M221.95 410.641C234.228 410.641 244.409 400.609 244.409 388.181C244.409 375.754 234.378 365.722 221.95 365.722C209.522 365.722 199.49 375.754 199.49 388.181C199.49 400.459 209.522 410.641 221.95 410.641Z" fill="#CABBC8"/>
<path fill-rule="evenodd" clip-rule="evenodd" d="M221.95 407.646C232.581 407.646 241.415 398.962 241.415 388.181C241.415 377.401 232.73 368.716 221.95 368.716C211.169 368.716 202.485 377.401 202.485 388.181C202.485 398.962 211.169 407.646 221.95 407.646Z" fill="#AF97AA"/>
<path fill-rule="evenodd" clip-rule="evenodd" d="M221.95 399.71C228.388 399.71 233.479 394.47 233.479 388.181C233.479 381.892 228.239 376.502 221.95 376.502C215.512 376.502 210.271 381.743 210.271 388.181C210.271 394.62 215.512 399.71 221.95 399.71Z" fill="#CABBC8"/>
<path fill-rule="evenodd" clip-rule="evenodd" d="M221.95 392.224C224.196 392.224 226.142 390.427 226.142 388.032C226.142 385.786 224.345 383.839 221.95 383.839C219.704 383.839 217.757 385.636 217.757 388.032C217.757 390.427 219.704 392.224 221.95 392.224Z" fill="#0086D7"/>
<path fill-rule="evenodd" clip-rule="evenodd" d="M548.812 428.908C571.272 428.908 589.539 410.641 589.539 388.181C589.539 365.722 571.272 347.454 548.812 347.454C526.353 347.454 508.086 365.722 508.086 388.181C507.936 410.641 526.203 428.908 548.812 428.908Z" fill="#523459"/>
<path fill-rule="evenodd" clip-rule="evenodd" d="M548.812 410.641C561.09 410.641 571.272 400.609 571.272 388.181C571.272 375.754 561.24 365.722 548.812 365.722C536.385 365.722 526.353 375.754 526.353 388.181C526.353 400.459 536.385 410.641 548.812 410.641Z" fill="#CABBC8"/>
<path fill-rule="evenodd" clip-rule="evenodd" d="M548.812 407.646C559.593 407.646 568.277 398.962 568.277 388.181C568.277 377.401 559.593 368.716 548.812 368.716C538.032 368.716 529.347 377.401 529.347 388.181C529.347 398.962 538.032 407.646 548.812 407.646Z" fill="#AF97AA"/>
<path fill-rule="evenodd" clip-rule="evenodd" d="M548.812 399.71C555.251 399.71 560.342 394.47 560.342 388.181C560.342 381.892 555.101 376.502 548.812 376.502C542.524 376.502 537.133 381.743 537.133 388.181C537.133 394.62 542.374 399.71 548.812 399.71Z" fill="#CABBC8"/>
<path fill-rule="evenodd" clip-rule="evenodd" d="M548.812 392.224C551.058 392.224 552.855 390.427 552.855 388.032C552.855 385.786 551.058 383.839 548.812 383.839C546.566 383.839 544.62 385.636 544.62 388.032C544.62 390.427 546.417 392.224 548.812 392.224Z" fill="#0086D7"/>
<path fill-rule="evenodd" clip-rule="evenodd" d="M621.731 336.823H637.004C642.993 336.823 647.934 341.765 647.934 347.604V362.278C647.934 368.267 642.993 373.208 637.004 373.208H621.731C615.742 373.208 610.801 368.267 610.801 362.278V347.604C610.951 341.765 615.742 336.823 621.731 336.823Z" fill="#9BABBA"/>
<path fill-rule="evenodd" clip-rule="evenodd" d="M63.8341 346.257H75.8126C80.604 346.257 84.6467 350.299 84.6467 355.091V373.657C84.6467 378.598 80.604 382.491 75.8126 382.491H63.8341C59.0427 382.491 55 378.449 55 373.657V355.091C55 350.299 59.0427 346.257 63.8341 346.257Z" fill="#9BABBA"/>
<path fill-rule="evenodd" clip-rule="evenodd" d="M61.4386 274.386H65.7808V300.589H61.4386C58.5937 300.589 56.198 298.193 56.198 295.348V279.626C56.198 276.632 58.444 274.386 61.4386 274.386Z" fill="#A3929E"/>
<path fill-rule="evenodd" clip-rule="evenodd" d="M80.4542 294.15H95.1279C96.176 294.15 96.9246 295.049 96.9246 295.947V300.888C96.9246 301.936 96.0262 302.685 95.1279 302.685H80.4542C79.4061 302.685 78.6575 301.787 78.6575 300.888V295.947C78.6575 294.899 79.4061 294.15 80.4542 294.15Z" fill="#402946"/>
<path fill-rule="evenodd" clip-rule="evenodd" d="M96.9246 295.348C96.9246 295.498 97.0744 295.647 97.0744 295.947V300.888C97.0744 301.936 96.176 302.685 95.2776 302.685H80.4542C80.3045 302.685 80.3045 302.685 80.1548 302.685V296.546C80.1548 295.947 80.604 295.498 81.3526 295.498H96.9246V295.348Z" fill="#523459"/>
<path fill-rule="evenodd" clip-rule="evenodd" d="M90.4862 332.332H101.117C104.411 332.332 106.957 335.027 106.957 338.171C106.957 341.465 104.261 344.011 101.117 344.011H90.4862C87.1921 344.011 84.6467 341.315 84.6467 338.171C84.6467 335.027 87.1921 332.332 90.4862 332.332Z" fill="#452347"/>
<path fill-rule="evenodd" clip-rule="evenodd" d="M91.0854 333.829H100.668C103.064 333.829 105.16 335.925 105.16 338.321C105.16 340.716 103.064 342.813 100.668 342.813H91.0854C88.6897 342.813 86.5935 340.866 86.5935 338.321C86.5935 335.775 88.54 333.829 91.0854 333.829Z" fill="#FFD600"/>
<path fill-rule="evenodd" clip-rule="evenodd" d="M105.01 337.871C105.01 338.021 105.01 338.171 105.01 338.321C105.01 340.716 102.914 342.813 100.518 342.813H90.9355C88.5398 342.813 86.4436 340.866 86.4436 338.321C86.4436 338.171 86.4436 338.021 86.4436 337.871H105.01Z" fill="#FFDF56"/>
<path fill-rule="evenodd" clip-rule="evenodd" d="M100.369 341.615C102.165 341.615 103.812 340.117 103.812 338.321C103.812 336.524 102.315 334.877 100.369 334.877C98.5718 334.877 97.0745 336.374 97.0745 338.321C97.0745 340.117 98.5718 341.615 100.369 341.615Z" fill="#FFF0B8"/>
<path fill-rule="evenodd" clip-rule="evenodd" d="M108.154 131.243H120.582C122.678 131.243 124.026 133.04 123.427 135.136L120.582 144.869C119.983 146.965 117.737 148.762 115.491 148.762H103.063C100.967 148.762 99.6197 146.965 100.219 144.869L103.063 135.136C103.662 133.04 105.908 131.243 108.154 131.243Z" fill="#E1DAE1"/>
<path fill-rule="evenodd" clip-rule="evenodd" d="M137.202 131.243H149.63C151.726 131.243 153.073 133.04 152.475 135.136L149.63 144.869C149.031 146.965 146.785 148.762 144.539 148.762H132.111C130.015 148.762 128.667 146.965 129.416 144.869L132.261 135.136C132.71 133.04 135.106 131.243 137.202 131.243Z" fill="#FF3548"/>
<path fill-rule="evenodd" clip-rule="evenodd" d="M435.466 131.243H423.038C420.942 131.243 419.595 133.04 420.343 135.136L423.338 144.869C424.087 146.965 426.333 148.762 428.429 148.762H440.856C442.953 148.762 444.3 146.965 443.552 144.869L440.557 135.136C439.958 133.04 437.712 131.243 435.466 131.243Z" fill="#FF3548"/>
<path fill-rule="evenodd" clip-rule="evenodd" d="M406.418 131.243H393.991C391.894 131.243 390.547 133.04 391.295 135.136L394.29 144.869C395.039 146.965 397.285 148.762 399.381 148.762H411.808C413.905 148.762 415.252 146.965 414.504 144.869L411.509 135.136C410.91 133.04 408.664 131.243 406.418 131.243Z" fill="#E1DAE1"/>
<path fill-rule="evenodd" clip-rule="evenodd" d="M545.069 183.499C557.496 208.354 571.421 239.049 573.368 242.643L566.93 245.787L538.031 186.045L545.069 183.499Z" fill="#263546"/>
<path fill-rule="evenodd" clip-rule="evenodd" d="M467.059 184.996H515.123L544.77 243.242V260.461C544.77 264.504 541.475 267.798 537.433 267.798H467.059C463.017 267.798 459.722 264.504 459.722 260.461V192.333C459.722 188.44 463.017 184.996 467.059 184.996Z" fill="#006DAF"/>
<path fill-rule="evenodd" clip-rule="evenodd" d="M467.059 187.242H513.925L542.673 243.841V260.611C542.673 263.455 540.278 265.851 537.433 265.851H467.059C464.214 265.851 461.819 263.455 461.819 260.611V192.483C461.819 189.488 464.214 187.242 467.059 187.242Z" fill="#263546"/>
<path fill-rule="evenodd" clip-rule="evenodd" d="M521.112 201.317L530.246 219.135L465.861 265.701C463.615 265.102 461.968 263.006 461.968 260.611V242.942L521.112 201.317Z" fill="#4D5A70"/>
<path fill-rule="evenodd" clip-rule="evenodd" d="M87.3418 193.232H119.833C124.924 193.232 128.967 197.125 128.967 202.066V256.568C128.967 261.359 124.924 265.252 119.833 265.252H87.3418C82.251 265.252 78.2083 261.359 78.2083 256.568V202.066C78.2083 197.274 82.4007 193.232 87.3418 193.232Z" fill="#B5B5B5"/>
<path fill-rule="evenodd" clip-rule="evenodd" d="M88.9889 195.478H118.186C122.678 195.478 126.422 199.221 126.422 203.713V254.921C126.422 259.413 122.678 263.156 118.186 263.156H88.9889C84.4969 263.156 80.7537 259.413 80.7537 254.921V203.713C80.7537 199.071 84.4969 195.478 88.9889 195.478Z" fill="#263546"/>
<path fill-rule="evenodd" clip-rule="evenodd" d="M126.422 202.216C126.422 202.665 126.571 203.114 126.571 203.563V226.322L82.4009 259.712C81.3528 258.365 80.9036 256.718 80.9036 254.921V235.306L126.422 202.216Z" fill="#4D5A70"/>
<path fill-rule="evenodd" clip-rule="evenodd" d="M544.62 232.461C547.914 232.461 550.609 235.156 550.609 238.45V269.145C550.609 272.439 547.914 275.134 544.62 275.134C541.326 275.134 538.63 272.439 538.63 269.145V238.45C538.63 235.156 541.326 232.461 544.62 232.461Z" fill="#D4D1D5"/>
<path fill-rule="evenodd" clip-rule="evenodd" d="M544.62 232.461C545.668 232.461 546.566 232.761 547.465 233.21V251.028C547.465 254.322 544.769 257.017 541.475 257.017C540.427 257.017 539.529 256.717 538.63 256.268V238.45C538.63 235.156 541.326 232.461 544.62 232.461Z" fill="#ACAAAE"/>
<path fill-rule="evenodd" clip-rule="evenodd" d="M532.042 210.75H540.577C542.823 210.75 544.62 212.547 544.62 214.643V249.381C544.62 251.477 542.823 253.274 540.577 253.274H532.042C529.946 253.274 528.149 251.477 528.149 249.381V214.643C528.149 212.547 529.946 210.75 532.042 210.75Z" fill="#D4D1D5"/>
<path fill-rule="evenodd" clip-rule="evenodd" d="M532.042 210.75H537.882C538.181 211.349 538.331 211.948 538.331 212.697V251.477C538.331 252.226 538.181 252.824 537.882 253.423H532.042C529.946 253.423 528.149 251.627 528.149 249.53V214.793C528.149 212.547 529.946 210.75 532.042 210.75Z" fill="#EAE8ED"/>
<path fill-rule="evenodd" clip-rule="evenodd" d="M465.861 274.985H486.375C487.273 274.985 488.022 275.733 488.022 276.632V282.621C488.022 283.519 487.273 284.268 486.375 284.268H465.861C464.963 284.268 464.214 283.519 464.214 282.621V276.632C464.214 275.733 464.963 274.985 465.861 274.985Z" fill="#C8B4C2"/>
<path fill-rule="evenodd" clip-rule="evenodd" d="M488.171 280.225V282.621C488.171 283.519 487.423 284.268 486.524 284.268H466.011C465.113 284.268 464.364 283.519 464.364 282.621V280.225H488.171Z" fill="#523459"/>
<path fill-rule="evenodd" clip-rule="evenodd" d="M412.258 274.985H432.771C433.669 274.985 434.418 275.733 434.418 276.632V282.621C434.418 283.519 433.669 284.268 432.771 284.268H412.258C411.359 284.268 410.611 283.519 410.611 282.621V276.632C410.611 275.733 411.359 274.985 412.258 274.985Z" fill="#C8B4C2"/>
<path fill-rule="evenodd" clip-rule="evenodd" d="M434.568 280.225V282.621C434.568 283.519 433.819 284.268 432.921 284.268H412.407C411.509 284.268 410.76 283.519 410.76 282.621V280.225H434.568Z" fill="#523459"/>
<path fill-rule="evenodd" clip-rule="evenodd" d="M198.142 257.915C216.859 257.915 232.281 242.643 232.281 223.777C232.281 205.06 217.009 189.788 198.142 189.788C179.426 189.788 164.154 205.06 164.154 223.777C164.154 242.643 179.426 257.915 198.142 257.915Z" fill="white"/>
<path fill-rule="evenodd" clip-rule="evenodd" d="M217.458 203.713L225.393 217.338L214.014 223.926L225.393 230.515L217.458 244.14L206.078 237.552V250.728H190.356V237.552L178.977 244.14L171.191 230.515L182.57 223.926L171.191 217.338L178.977 203.713L190.356 210.301V197.125H206.078V210.301L217.458 203.713Z" fill="#0086D7"/>
<path fill-rule="evenodd" clip-rule="evenodd" d="M374.226 342.064L378.568 349.551L372.28 353.144L378.568 356.887L374.226 364.524L367.937 360.78V368.117H359.103V360.78L352.815 364.524L348.472 356.887L354.761 353.144L348.472 349.551L352.815 342.064L359.103 345.658V338.321H367.937V345.658L374.226 342.064Z" fill="#EAE8ED"/>
<path fill-rule="evenodd" clip-rule="evenodd" d="M469.305 122.409H504.043L509.732 152.056H464.813L469.305 122.409Z" fill="#FF3548"/>
<path fill-rule="evenodd" clip-rule="evenodd" d="M469.305 122.409H504.043L509.732 152.056H506.438L501.497 127.051L468.557 126.601L469.305 122.409Z" fill="#FF6E7B"/>
<path fill-rule="evenodd" clip-rule="evenodd" d="M469.305 122.409H473.348L469.605 152.056H464.813L469.305 122.409Z" fill="#D22939"/>
<path fill-rule="evenodd" clip-rule="evenodd" d="M508.235 144.12L509.732 152.056H464.813L466.011 144.12H508.235Z" fill="#BEAEBC"/>
<path fill-rule="evenodd" clip-rule="evenodd" d="M508.235 144.12L509.732 152.056H506.438L504.791 144.12H508.235Z" fill="#D4C9D4"/>
<path fill-rule="evenodd" clip-rule="evenodd" d="M469.605 152.056H464.813L466.011 144.12H470.653L469.605 152.056Z" fill="#808080"/>
<path d="M492.663 152.056H480.385V155.05H492.663V152.056Z" fill="#666666"/>
<path fill-rule="evenodd" clip-rule="evenodd" d="M118.186 332.481H130.015C132.111 332.481 133.758 334.128 133.758 336.225V345.957C133.758 348.053 132.111 349.7 130.015 349.7H118.186C116.09 349.7 114.443 348.053 114.443 345.957V336.225C114.443 334.128 116.24 332.481 118.186 332.481Z" fill="#00629D"/>
<path d="M303.393 313L302.026 309.062H296.152L294.785 313H291.558L297.18 297.588H300.987L306.587 313H303.393ZM299.083 299.962L299.018 300.202C298.945 300.465 298.857 300.764 298.755 301.099C298.653 301.435 298.026 303.28 296.874 306.634H301.304L299.783 302.204L299.313 300.716L299.083 299.962ZM321.485 313V303.659C321.485 303.447 321.485 303.236 321.485 303.024C321.492 302.813 321.529 301.905 321.594 300.301C321.076 302.262 320.694 303.63 320.446 304.403L317.667 313H315.37L312.592 304.403L311.422 300.301C311.509 301.992 311.553 303.112 311.553 303.659V313H308.687V297.588H313.008L315.764 306.207L316.005 307.039L316.53 309.106L317.219 306.634L320.052 297.588H324.351V313H321.485ZM341.01 308.603C341.01 310.003 340.485 311.086 339.434 311.851C338.384 312.617 336.926 313 335.059 313H327.348V297.588H334.403C336.284 297.588 337.706 297.916 338.669 298.572C339.639 299.221 340.124 300.184 340.124 301.46C340.124 302.335 339.879 303.075 339.391 303.681C338.909 304.279 338.173 304.683 337.181 304.895C338.428 305.041 339.376 305.434 340.025 306.076C340.681 306.711 341.01 307.553 341.01 308.603ZM336.875 301.898C336.875 301.205 336.653 300.713 336.208 300.421C335.77 300.129 335.118 299.984 334.25 299.984H330.575V303.801H334.272C335.183 303.801 335.843 303.644 336.251 303.331C336.667 303.01 336.875 302.532 336.875 301.898ZM337.772 308.351C337.772 306.907 336.736 306.185 334.665 306.185H330.575V310.605H334.786C335.821 310.605 336.576 310.419 337.05 310.047C337.531 309.667 337.772 309.102 337.772 308.351ZM349.946 313.219C347.824 313.219 346.198 312.701 345.068 311.666C343.945 310.63 343.383 309.15 343.383 307.225V297.588H346.61V306.973C346.61 308.191 346.898 309.117 347.474 309.751C348.057 310.378 348.911 310.692 350.034 310.692C351.186 310.692 352.072 310.364 352.692 309.708C353.311 309.044 353.621 308.096 353.621 306.864V297.588H356.848V307.061C356.848 309.015 356.243 310.532 355.032 311.611C353.829 312.683 352.134 313.219 349.946 313.219ZM359.725 313V297.588H362.952V310.506H371.221V313H359.725ZM384.314 313L382.947 309.062H377.073L375.706 313H372.479L378.101 297.588H381.908L387.508 313H384.314ZM380.004 299.962L379.939 300.202C379.866 300.465 379.778 300.764 379.676 301.099C379.574 301.435 378.947 303.28 377.795 306.634H382.225L380.704 302.204L380.234 300.716L380.004 299.962ZM398.993 313L392.277 301.132C392.408 302.284 392.474 303.21 392.474 303.91V313H389.608V297.588H393.294L400.109 309.554C399.978 308.453 399.912 307.451 399.912 306.546V297.588H402.778V313H398.993ZM412.994 310.681C414.941 310.681 416.294 309.704 417.052 307.75L419.863 308.811C419.258 310.298 418.368 311.407 417.194 312.136C416.028 312.858 414.628 313.219 412.994 313.219C410.515 313.219 408.597 312.519 407.241 311.119C405.892 309.711 405.217 307.746 405.217 305.223C405.217 302.693 405.87 300.749 407.175 299.393C408.48 298.036 410.373 297.358 412.852 297.358C414.66 297.358 416.133 297.723 417.271 298.452C418.409 299.174 419.207 300.239 419.666 301.646L416.822 302.423C416.582 301.65 416.108 301.037 415.401 300.585C414.7 300.126 413.873 299.896 412.918 299.896C411.459 299.896 410.351 300.348 409.592 301.252C408.841 302.157 408.466 303.48 408.466 305.223C408.466 306.995 408.852 308.348 409.625 309.281C410.405 310.214 411.528 310.681 412.994 310.681ZM421.985 313V297.588H434.105V300.082H425.212V303.954H433.438V306.448H425.212V310.506H434.553V313H421.985Z" fill="#0086D7"/>
<path d="M310.803 202V193.744H317.295V195.08H312.531V197.154H316.938V198.49H312.531V200.664H317.535V202H310.803ZM325.662 202V196.996C325.662 196.883 325.662 196.77 325.662 196.656C325.666 196.543 325.686 196.057 325.721 195.197C325.443 196.248 325.238 196.98 325.105 197.395L323.617 202H322.387L320.898 197.395L320.271 195.197C320.318 196.104 320.342 196.703 320.342 196.996V202H318.807V193.744H321.121L322.598 198.361L322.727 198.807L323.008 199.914L323.377 198.59L324.895 193.744H327.197V202H325.662ZM328.803 202V193.744H335.295V195.08H330.531V197.154H334.938V198.49H330.531V200.664H335.535V202H328.803ZM342.479 202L340.562 198.865H338.535V202H336.807V193.744H340.932C341.916 193.744 342.676 193.957 343.211 194.383C343.746 194.805 344.014 195.412 344.014 196.205C344.014 196.783 343.85 197.283 343.521 197.705C343.193 198.123 342.75 198.398 342.191 198.531L344.424 202H342.479ZM342.273 196.275C342.273 195.482 341.766 195.086 340.75 195.086H338.535V197.523H340.797C341.281 197.523 341.648 197.414 341.898 197.195C342.148 196.977 342.273 196.67 342.273 196.275ZM349.398 200.764C349.848 200.764 350.283 200.699 350.705 200.57C351.127 200.438 351.453 200.27 351.684 200.066V198.924H349.668V197.646H353.266V200.682C352.828 201.131 352.258 201.482 351.555 201.736C350.855 201.99 350.121 202.117 349.352 202.117C348.008 202.117 346.975 201.746 346.252 201.004C345.529 200.258 345.168 199.201 345.168 197.834C345.168 196.475 345.531 195.434 346.258 194.711C346.984 193.984 348.029 193.621 349.393 193.621C351.33 193.621 352.562 194.338 353.09 195.771L351.496 196.252C351.324 195.834 351.055 195.518 350.688 195.303C350.32 195.088 349.889 194.98 349.393 194.98C348.58 194.98 347.963 195.227 347.541 195.719C347.119 196.211 346.908 196.916 346.908 197.834C346.908 198.768 347.125 199.49 347.559 200.002C347.996 200.51 348.609 200.764 349.398 200.764ZM354.818 202V193.744H361.311V195.08H356.547V197.154H360.953V198.49H356.547V200.664H361.551V202H354.818ZM367.85 202L364.252 195.643C364.322 196.26 364.357 196.756 364.357 197.131V202H362.822V193.744H364.797L368.447 200.154C368.377 199.564 368.342 199.027 368.342 198.543V193.744H369.877V202H367.85ZM375.35 200.758C376.393 200.758 377.117 200.234 377.523 199.188L379.029 199.756C378.705 200.553 378.229 201.146 377.6 201.537C376.975 201.924 376.225 202.117 375.35 202.117C374.021 202.117 372.994 201.742 372.268 200.992C371.545 200.238 371.184 199.186 371.184 197.834C371.184 196.479 371.533 195.438 372.232 194.711C372.932 193.984 373.945 193.621 375.273 193.621C376.242 193.621 377.031 193.816 377.641 194.207C378.25 194.594 378.678 195.164 378.924 195.918L377.4 196.334C377.271 195.92 377.018 195.592 376.639 195.35C376.264 195.104 375.82 194.98 375.309 194.98C374.527 194.98 373.934 195.223 373.527 195.707C373.125 196.191 372.924 196.9 372.924 197.834C372.924 198.783 373.131 199.508 373.545 200.008C373.963 200.508 374.564 200.758 375.35 200.758ZM384.232 198.613V202H382.51V198.613L379.568 193.744H381.379L383.359 197.236L385.363 193.744H387.174L384.232 198.613ZM395.143 200.758C396.186 200.758 396.91 200.234 397.316 199.188L398.822 199.756C398.498 200.553 398.021 201.146 397.393 201.537C396.768 201.924 396.018 202.117 395.143 202.117C393.814 202.117 392.787 201.742 392.061 200.992C391.338 200.238 390.977 199.186 390.977 197.834C390.977 196.479 391.326 195.438 392.025 194.711C392.725 193.984 393.738 193.621 395.066 193.621C396.035 193.621 396.824 193.816 397.434 194.207C398.043 194.594 398.471 195.164 398.717 195.918L397.193 196.334C397.064 195.92 396.811 195.592 396.432 195.35C396.057 195.104 395.613 194.98 395.102 194.98C394.32 194.98 393.727 195.223 393.32 195.707C392.918 196.191 392.717 196.9 392.717 197.834C392.717 198.783 392.924 199.508 393.338 200.008C393.756 200.508 394.357 200.758 395.143 200.758ZM405.795 202L405.062 199.891H401.916L401.184 202H399.455L402.467 193.744H404.506L407.506 202H405.795ZM403.486 195.016L403.451 195.145C403.412 195.285 403.365 195.445 403.311 195.625C403.256 195.805 402.92 196.793 402.303 198.59H404.676L403.861 196.217L403.609 195.42L403.486 195.016ZM408.631 202V193.744H410.359V200.664H414.789V202H408.631ZM415.967 202V193.744H417.695V200.664H422.125V202H415.967Z" fill="#0086D7"/>
</svg>
