<svg width="529" height="513" viewBox="0 0 529 513" fill="none" xmlns="http://www.w3.org/2000/svg">
<path d="M459.553 133.548C474.885 107.857 466.44 74.6301 440.69 59.3329C414.94 44.0357 381.637 52.4613 366.304 78.1519C350.972 103.843 359.417 137.07 385.167 152.367C410.917 167.664 444.22 159.239 459.553 133.548Z" fill="#487CFF"/>
<path d="M336.143 8.55274e-05L335.663 2.12735L443.338 26.3195L443.818 24.1923L336.143 8.55274e-05Z" fill="white"/>
<path d="M334.958 5.27097L334.478 7.39824L442.153 31.5904L442.633 29.4632L334.958 5.27097Z" fill="white"/>
<path d="M333.781 10.5169L333.301 12.6442L440.976 36.8364L441.456 34.7091L333.781 10.5169Z" fill="white"/>
<path d="M332.598 15.7888L332.118 17.9162L439.793 42.1084L440.273 39.9811L332.598 15.7888Z" fill="white"/>
<path d="M331.395 21.0295L330.915 23.1568L438.59 47.349L439.07 45.2217L331.395 21.0295Z" fill="white"/>
<path d="M330.212 26.3014L329.732 28.4287L437.407 52.6209L437.887 50.4936L330.212 26.3014Z" fill="white"/>
<path d="M329.034 31.5472L328.554 33.6745L436.229 57.8667L436.709 55.7394L329.034 31.5472Z" fill="white"/>
<path d="M327.851 36.819L327.371 38.9463L435.046 63.1385L435.526 61.0112L327.851 36.819Z" fill="white"/>
<path d="M326.641 42.0848L326.161 44.2121L433.836 68.4043L434.316 66.277L326.641 42.0848Z" fill="white"/>
<path d="M325.463 47.33L324.982 49.4573L432.657 73.6495L433.138 71.5222L325.463 47.33Z" fill="white"/>
<path d="M324.279 52.6016L323.799 54.7289L431.474 78.9211L431.954 76.7938L324.279 52.6016Z" fill="white"/>
<path d="M323.102 57.8477L322.621 59.975L430.296 84.1672L430.776 82.0399L323.102 57.8477Z" fill="white"/>
<path d="M321.892 63.1133L321.412 65.2406L429.087 89.4328L429.567 87.3055L321.892 63.1133Z" fill="white"/>
<path d="M320.716 68.3603L320.236 70.4876L427.911 94.6798L428.391 92.5525L320.716 68.3603Z" fill="white"/>
<path d="M319.532 73.6319L319.052 75.7592L426.727 99.9514L427.207 97.8241L319.532 73.6319Z" fill="white"/>
<path d="M318.355 78.8775L317.875 81.0049L425.55 105.197L426.03 103.07L318.355 78.8775Z" fill="white"/>
<path opacity="0.24" d="M370.795 203.975C365.357 203.045 360.027 201.502 355.389 198.737C344.089 191.956 334.494 176.905 338.119 141.353C343.369 89.7389 270.475 53.3885 182.015 86.0161C107.228 113.591 36.9988 175.496 41.3432 314.755C43.4487 382.536 75.4051 436.383 121.381 470.739H383.641C429.457 438.963 443.583 397.64 450.219 365.331C460.853 313.797 450.219 217.537 370.795 203.975Z" fill="#487CFF"/>
<path opacity="0.48" d="M135.107 470.713H371.914C424.419 433.086 431.562 387.243 431.935 353.472C432.442 307.522 407.122 225.886 336.28 225.248C331.429 225.195 326.551 224.637 322.1 222.882C311.226 218.6 300.405 206.953 297.554 175.735C293.422 130.45 224.392 109.204 153.47 149.676C93.5287 183.899 43.2888 247.133 70.3944 366.767C80.4957 411.228 104.243 446.275 135.107 470.713Z" fill="#487CFF"/>
<path d="M302.59 165.338C302.59 165.338 302.164 132.046 304.243 136.885C312.319 155.739 329.349 144.464 336.599 172.278C341.743 192.036 328.017 208.895 349.552 218.574C370.608 228.014 372.58 267.848 336.839 276.889C301.125 285.93 261.119 280.718 261.119 280.718L214.077 272.155C214.077 272.155 172.313 281.25 153.843 265.454C135.373 249.659 139.157 216.393 163.171 209.639C180.282 204.8 174.872 186.345 174.445 174.06C174.019 161.801 175.618 149.702 195.101 138.295C212.851 127.924 302.59 165.338 302.59 165.338Z" fill="#290F04"/>
<path opacity="0.4" d="M284.494 153.877C284.494 153.877 279.829 165.152 288.678 169.566C297.847 174.113 297.9 180.229 296.487 196.078C295.075 211.953 310.267 210.304 321.86 219.584C333.454 228.865 338.092 267.529 314.851 273.937C314.851 273.937 268.689 290.53 242.703 279.867C216.716 269.204 202.67 283.723 186.173 269.815C165.997 252.823 166.663 222.004 184.147 212.671C200.592 203.869 193.689 200.359 193.129 188.605C192.569 176.852 202.111 174.379 207.068 171.454C212.052 168.502 215.224 160.259 215.304 155.712C215.384 151.165 284.494 153.877 284.494 153.877Z" fill="#290F04"/>
<path d="M324.712 230.487C314.397 221.499 278.177 212.617 269.968 208.097C261.785 203.55 263.358 176.081 263.358 176.081L246.673 176.028L229.989 175.496C229.989 175.496 230.602 203.018 222.26 207.273C213.918 211.527 177.404 219.132 166.769 227.748C156.135 236.363 166.21 290.982 166.21 290.982L221.327 291.381L244.781 283.297L267.942 292.205L323.033 293.721C323.059 293.721 335.053 239.475 324.712 230.487Z" fill="#FFB992"/>
<path d="M223.699 207.299L248.3 262.742L269.995 208.097L300.245 219.957L313.438 506.159L190.597 506.292L187.105 218.574L223.699 207.299Z" fill="#55B4D1"/>
<path d="M218.902 275.665L247.314 342.33C247.314 342.33 245.341 405.99 246.034 449.865C246.727 493.714 243.795 510.467 243.795 510.467L148.913 503.394L166.397 383.121C166.397 383.121 145.048 259.418 166.85 227.721C175.405 215.277 212.079 212.192 223.753 206.342C226.978 204.746 218.902 275.665 218.902 275.665Z" fill="#EFF4FF"/>
<path d="M193.342 414.233L204.723 424.311C204.723 424.311 193.635 434.097 173.699 436.304L172.979 422.529L193.342 414.233Z" fill="#FFB992"/>
<path d="M331.056 257.956C331.056 257.956 329.296 235.858 324.739 230.513C315.171 219.265 269.995 208.124 269.995 208.124C269.995 208.124 274.819 264.178 271.114 280.771C267.409 297.337 253.977 341.745 253.977 341.745C253.977 341.745 255.149 392.455 257.148 428.805C259.174 465.155 264.025 512.515 264.025 512.515C264.025 512.515 342.143 511.238 360.107 502.835C360.107 502.835 339.185 398.065 334.973 379.85C330.736 361.582 331.056 257.956 331.056 257.956Z" fill="#EFF4FF"/>
<path d="M193.289 254.419L166.796 227.748C166.796 227.748 157.761 237.347 150.378 268.991C142.996 300.635 138.411 326.561 141.023 348.818C143.235 367.618 158.667 413.249 170.341 427.635C170.341 427.635 188.571 426.252 201.258 415.11L181.482 343.287L193.289 254.419Z" fill="#EFF4FF"/>
<path d="M221.54 206.475C219.115 205.863 216.077 208.948 214.877 210.357C213.705 211.767 212.612 213.229 211.652 214.798C211.119 215.543 210.746 216.394 210.293 217.191L209.653 218.388C209.44 218.787 209.28 219.212 209.094 219.638C208.721 220.489 208.347 221.313 208.001 222.164L207.121 224.743C206.988 225.169 206.802 225.594 206.695 226.046L206.349 227.376L205.682 230.035C205.336 231.79 204.963 233.518 204.643 235.273C203.337 242.293 202.431 249.34 201.658 256.413C201.285 259.95 200.965 263.487 200.698 267.05L205.336 267.342C205.496 263.832 205.709 260.322 206.002 256.812C206.508 249.792 207.335 242.825 208.268 235.858C208.507 234.13 208.774 232.375 209.067 230.646L209.574 228.12L209.84 226.87C209.92 226.445 210.08 226.046 210.187 225.647L210.906 223.174C211.199 222.377 211.519 221.579 211.812 220.781C211.972 220.382 212.105 219.983 212.292 219.584L212.852 218.441C213.252 217.67 213.545 216.872 214.024 216.154C217.169 209.746 224.312 204.082 221.54 206.475Z" fill="url(#paint0_linear)"/>
<path d="M213.571 273.538C213.438 280 208.081 285.159 201.604 285.026C195.128 284.893 189.957 279.548 190.09 273.086C190.224 266.625 195.581 261.466 202.057 261.599C208.534 261.732 213.678 267.077 213.571 273.538Z" fill="url(#paint1_linear)"/>
<path opacity="0.47" d="M209.467 273.459C209.387 277.66 205.895 281.011 201.684 280.931C197.473 280.851 194.115 277.367 194.195 273.166C194.275 268.965 197.766 265.614 201.978 265.694C206.189 265.774 209.547 269.257 209.467 273.459Z" fill="url(#paint2_linear)"/>
<path d="M265.81 200.412C265.81 200.412 267.196 232.614 266.317 258.355C265.624 279.495 253.497 341.692 253.497 341.692L283.561 274.894L277.271 265.322L285.64 263.194C285.693 263.221 289.025 235.247 265.81 200.412Z" fill="#EFF4FF"/>
<path d="M265.81 200.412C265.81 200.412 267.196 232.614 266.317 258.355C265.624 279.495 253.497 341.692 253.497 341.692L283.561 274.894L277.271 265.322L285.64 263.194C285.693 263.221 289.025 235.247 265.81 200.412Z" fill="#E9F0FF"/>
<path opacity="0.49" d="M246.94 200.838C253.363 200.944 259.2 198.551 264.158 194.801C262.825 185.867 263.358 178.129 263.358 178.129L246.674 178.075L229.989 177.544C229.989 177.544 230.229 184.564 228.763 193.179C233.827 197.7 239.957 200.705 246.94 200.838Z" fill="#FFB992"/>
<path d="M226.551 201.555C226.551 201.555 224.259 231.923 225.405 257.663C226.578 283.696 247.287 342.357 247.287 342.357L208.054 273.591L214.664 264.258L206.375 261.838C206.348 261.838 196.434 234.156 226.551 201.555Z" fill="#E9F0FF"/>
<path d="M281.429 149.782C281.029 173.342 266.876 194.376 247.074 194.03C227.271 193.684 213.865 172.172 214.264 148.612C214.664 125.052 228.763 108.379 248.566 108.725C268.342 109.071 281.828 126.222 281.429 149.782Z" fill="#FFB992"/>
<path d="M228.843 108.379C228.843 108.379 230.229 126.568 254.59 131.514C278.95 136.486 280.256 142.044 281.429 149.782C282.575 157.52 284.014 165.498 294.648 173.9C305.309 182.303 318.715 161.27 318.715 161.27C318.715 161.27 308.428 158.823 305.842 144.597C303.257 130.37 301.311 94.3126 270.181 86.6808C239.051 79.0491 227.377 94.7114 228.843 108.379Z" fill="#290F04"/>
<path d="M238.092 116.197C238.092 116.197 234.867 137.71 217.756 140.528C210 141.805 209.334 150.58 210.906 159.754C211.759 164.647 205.549 167.492 202.377 163.663L188.891 147.389C188.891 147.389 196.114 140.422 196.247 133.322C196.38 126.222 208.108 89.8452 234.12 97.663C260.16 105.507 238.092 116.197 238.092 116.197Z" fill="#290F04"/>
<path d="M219.328 141.113C219.328 141.113 213.731 135.609 210.266 138.959C204.483 144.543 206.722 163.024 218.715 159.248" fill="#FFB992"/>
<path d="M276.871 142.124C276.871 142.124 282.654 136.832 286.013 140.289C291.61 146.059 288.705 164.46 276.844 160.259" fill="#FFB992"/>
<path d="M186.519 309.862L180.895 307.841L180.815 317.786C180.815 317.786 176.231 324.7 175.885 332.863C175.538 341.027 177.324 357.46 186.972 364.986L194.008 416.866L221.274 412.691L186.519 309.862Z" fill="#D8D8D8"/>
<path d="M312.319 288.642L299.659 283.43L302.884 337.277L233.72 345.388L316.157 350.733L312.319 288.642Z" fill="#D8D8D8"/>
<path d="M268.661 271.433L176.043 287.026L198.435 419.419L291.053 403.826L268.661 271.433Z" fill="#1F0B00"/>
<path d="M262.033 276.701L183.529 289.918L204.178 412.006L282.682 398.789L262.033 276.701Z" fill="#E9F0FF"/>
<path d="M249.124 271.413L194.431 280.621L196.449 292.552L251.142 283.344L249.124 271.413Z" fill="#1F0B00"/>
<path opacity="0.39" d="M200.752 359.322L197.633 364.933C197.633 364.933 205.949 366.821 212.745 368.443C216.823 369.426 221.381 372.91 221.381 372.91C221.381 372.91 220.741 387.642 225.645 389.237C232.735 391.55 310.427 413.089 338.705 392.561C366.983 372.032 301.711 376.181 301.711 376.181L200.752 359.322Z" fill="#D8D8D8"/>
<path opacity="0.39" d="M281.162 346.85L280.043 339.671C280.043 339.671 223.326 345.175 218.768 344.377C214.211 343.58 231.828 351.557 231.828 351.557L281.162 346.85Z" fill="#A4BBEA"/>
<path d="M223.353 366.714C223.353 366.714 221.887 384.265 228.124 385.594C234.36 386.95 239.318 374.346 239.318 374.346L223.353 366.714Z" fill="#C6C6C6"/>
<path d="M294.995 243.729L324.739 230.487C324.739 230.487 332.655 233.917 343.023 271.517C353.39 309.091 368.662 350.068 353.257 379.478C337.852 408.915 275.245 396.257 216.237 366.103C216.237 366.103 192.516 367.352 183.827 359.481C175.138 351.637 176.231 320.844 180.602 322.573C184.973 324.301 197.527 331.667 197.527 331.667C197.527 331.667 193.502 317.201 200.192 314.489C200.192 314.489 201.018 321.11 205.496 324.806C209.973 328.476 216.317 335.39 216.77 341.266C216.77 341.266 217.089 345.255 222.953 344.962C228.843 344.697 315.011 349.031 315.011 349.031L294.995 243.729Z" fill="#FFB992"/>
<path d="M233.427 374.346C286.919 398.331 339.344 406.069 353.23 379.478C368.635 350.041 353.364 309.091 342.996 271.491C332.628 233.917 324.712 230.487 324.712 230.487L292.702 243.676L299.739 278.883L312.852 344.431C312.852 344.431 254.509 345.282 231.668 344.989C231.668 344.989 235.293 361.928 233.427 374.346Z" fill="#EFF4FF"/>
<path d="M335.293 386.073L338.705 392.588C338.705 392.588 293.129 407.08 228.177 385.621C228.177 385.621 233.8 385.009 233.667 373.442C233.507 361.875 238.545 355.652 238.545 355.652L273.139 366.767L335.293 386.073Z" fill="#EFF4FF"/>
<path d="M279.243 415.004L332.681 424.869C332.681 424.869 308.028 426.784 279.243 415.004Z" fill="#D8D8D8"/>
<path d="M270.288 206.847C271.967 206.395 274.072 208.522 274.899 209.48C275.725 210.437 276.471 211.447 277.137 212.538C277.51 213.043 277.777 213.628 278.097 214.186L278.55 215.011C278.683 215.303 278.816 215.596 278.95 215.862C279.19 216.447 279.483 217.005 279.723 217.59L280.336 219.372C280.442 219.664 280.549 219.957 280.629 220.276L280.869 221.18L281.348 223.015C281.588 224.211 281.855 225.408 282.095 226.631C283.028 231.471 283.694 236.337 284.254 241.203C284.547 243.65 284.76 246.096 284.973 248.542L281.775 248.755C281.642 246.335 281.482 243.915 281.268 241.496C280.869 236.656 280.282 231.843 279.589 227.057C279.403 225.86 279.216 224.663 279.03 223.467L278.657 221.738L278.47 220.861C278.417 220.568 278.31 220.302 278.23 220.01L277.724 218.308C277.537 217.75 277.297 217.218 277.084 216.659C276.977 216.393 276.871 216.101 276.764 215.835L276.364 215.037C276.098 214.505 275.885 213.974 275.538 213.468C273.299 209.054 268.369 205.198 270.288 206.847Z" fill="url(#paint3_linear)"/>
<path d="M300.192 268.778C299.685 266.359 299.126 263.939 298.459 261.546C298.14 260.349 297.793 259.152 297.42 257.982C297.233 257.397 297.073 256.812 296.807 256.174L296.434 255.243L295.927 254.392C294.568 252.079 292.409 250.43 290.197 249.154C289.051 248.542 287.878 248.037 286.679 247.585C285.453 247.16 284.28 246.841 283.001 246.309L282.948 246.708L282.868 246.309C281.615 246.92 280.469 247.293 279.27 247.798C278.097 248.303 276.951 248.888 275.858 249.553C273.699 250.936 271.647 252.691 270.421 255.084L269.968 255.961L269.648 256.919C269.408 257.557 269.302 258.142 269.115 258.753C268.822 259.95 268.529 261.173 268.262 262.37C267.729 264.79 267.276 267.236 266.903 269.682C266.183 274.575 265.783 279.574 266.157 284.574C266.237 285.212 266.263 285.823 266.343 286.462C266.423 287.1 266.583 287.738 266.743 288.376C267.089 289.626 267.622 290.823 268.315 291.939C269.035 293.083 270.847 295.077 270.847 295.077L273.593 298.029C274.525 298.88 276.018 298.508 276.471 297.337L277.031 295.902C277.484 294.705 276.578 293.429 275.298 293.455L272.393 293.535C271.94 293.535 271.514 293.375 271.194 293.03C270.608 292.445 270.074 291.78 269.648 291.089C269.035 290.105 268.555 289.041 268.235 287.924C268.076 287.366 267.942 286.807 267.862 286.222C267.782 285.637 267.729 285.026 267.676 284.441C267.329 279.628 267.782 274.735 268.502 269.922C268.875 267.502 269.355 265.109 269.888 262.742C270.154 261.546 270.448 260.376 270.767 259.179C270.927 258.594 271.061 257.982 271.274 257.477L271.567 256.679L271.967 255.935C273.006 253.914 274.845 252.372 276.818 251.122C277.83 250.51 278.896 249.978 279.989 249.526C280.949 249.127 282.015 248.782 283.028 248.728C284.067 248.728 285.133 249.021 286.119 249.34C287.239 249.739 288.331 250.218 289.371 250.749C291.423 251.893 293.315 253.355 294.462 255.297L294.888 256.015L295.208 256.786C295.448 257.264 295.608 257.903 295.794 258.461C296.167 259.631 296.514 260.801 296.86 261.971C297.527 264.311 298.113 266.678 298.619 269.071C299.605 273.831 300.298 278.697 300.218 283.537C300.192 284.122 300.192 284.76 300.139 285.345C300.085 285.93 300.005 286.488 299.872 287.047C299.605 288.163 299.206 289.254 298.619 290.264C298.22 290.982 297.74 291.647 297.18 292.285C296.887 292.631 296.46 292.844 296.007 292.844L293.102 292.923C291.823 292.95 290.997 294.28 291.503 295.45L292.143 296.859C292.649 298.002 294.168 298.268 295.048 297.391L297.633 294.306C297.633 294.306 299.339 292.232 300.005 291.035C300.645 289.892 301.098 288.669 301.391 287.392C301.524 286.754 301.631 286.116 301.684 285.451C301.738 284.813 301.738 284.201 301.764 283.563C301.844 278.591 301.178 273.618 300.192 268.778Z" fill="url(#paint4_linear)"/>
<path d="M167.489 438.963L218.102 419.232C218.129 419.232 201.178 433.751 167.489 438.963Z" fill="#D8D8D8"/>
<path d="M483.562 357.997C508.657 346.963 520.034 317.721 508.975 292.684C497.915 267.647 468.606 256.295 443.511 267.33C418.417 278.364 407.039 307.606 418.099 332.643C429.158 357.68 458.467 369.032 483.562 357.997Z" fill="#EF7069"/>
<path d="M110.454 322.409C118.991 308.63 114.716 290.556 100.906 282.039C87.0959 273.521 68.98 277.786 60.4431 291.565C51.9063 305.344 56.1813 323.418 69.9915 331.935C83.8018 340.452 101.918 336.187 110.454 322.409Z" fill="#EF7069"/>
<path d="M77.0572 417.104C73.8056 425.348 64.4773 429.416 56.215 426.172C47.9527 422.928 43.8749 413.621 47.1265 405.378C50.3781 397.134 59.7065 393.066 67.9688 396.31C76.231 399.554 80.2822 408.861 77.0572 417.104Z" fill="#FFB260"/>
<path d="M410.875 294.091L409.462 295.347L473.323 366.868L474.736 365.612L410.875 294.091Z" fill="white"/>
<path d="M407.354 297.211L405.941 298.467L469.802 369.987L471.215 368.731L407.354 297.211Z" fill="white"/>
<path d="M403.851 300.352L402.438 301.607L466.299 373.128L467.712 371.872L403.851 300.352Z" fill="white"/>
<path d="M400.35 303.453L398.937 304.709L462.797 376.229L464.21 374.973L400.35 303.453Z" fill="white"/>
<path d="M396.829 306.569L395.416 307.825L459.276 379.345L460.69 378.09L396.829 306.569Z" fill="white"/>
<path d="M393.307 309.689L391.894 310.945L455.755 382.465L457.168 381.209L393.307 309.689Z" fill="white"/>
<path d="M389.824 312.81L388.411 314.066L452.272 385.586L453.685 384.331L389.824 312.81Z" fill="white"/>
<path d="M386.303 315.931L384.89 317.187L448.751 388.708L450.164 387.452L386.303 315.931Z" fill="white"/>
<path d="M382.782 319.052L381.369 320.308L445.23 391.828L446.643 390.573L382.782 319.052Z" fill="white"/>
<path d="M379.299 322.172L377.886 323.428L441.747 394.949L443.16 393.693L379.299 322.172Z" fill="white"/>
<path d="M375.778 325.292L374.365 326.548L438.226 398.068L439.639 396.812L375.778 325.292Z" fill="white"/>
<path d="M372.257 328.411L370.844 329.667L434.705 401.187L436.118 399.931L372.257 328.411Z" fill="white"/>
<path d="M368.756 331.513L367.343 332.769L431.204 404.289L432.617 403.033L368.756 331.513Z" fill="white"/>
<path d="M365.253 334.65L363.84 335.906L427.7 407.427L429.113 406.171L365.253 334.65Z" fill="white"/>
<path d="M361.732 337.77L360.319 339.026L424.179 410.546L425.592 409.29L361.732 337.77Z" fill="white"/>
<path d="M358.231 340.875L356.818 342.131L420.678 413.651L422.091 412.395L358.231 340.875Z" fill="white"/>
<path d="M72.8649 102.246C93.3062 92.3684 101.851 67.828 91.9509 47.4336C82.0505 27.0392 57.4537 18.5137 37.0123 28.3914C16.571 38.2691 8.02588 62.8095 17.9263 83.2039C27.8267 103.598 52.4236 112.124 72.8649 102.246Z" fill="#55B4D1"/>
<path d="M129.726 28.5919L19.0022 103.712L20.4859 105.889L131.21 30.7687L129.726 28.5919Z" fill="white"/>
<path d="M133.399 33.9959L22.6758 109.116L24.1595 111.293L134.883 36.1727L133.399 33.9959Z" fill="white"/>
<path d="M137.087 39.4228L26.3638 114.543L27.8474 116.72L138.571 41.5996L137.087 39.4228Z" fill="white"/>
<path d="M140.783 44.8117L30.0596 119.932L31.5432 122.109L142.267 46.9886L140.783 44.8117Z" fill="white"/>
<path d="M144.457 50.2157L33.7332 125.336L35.2168 127.513L145.94 52.3926L144.457 50.2157Z" fill="white"/>
<path d="M148.145 55.6424L37.4214 130.763L38.9051 132.94L149.629 57.8193L148.145 55.6424Z" fill="white"/>
<path d="M151.818 61.0464L41.0947 136.167L42.5784 138.344L153.302 63.2233L151.818 61.0464Z" fill="white"/>
<path d="M155.529 66.4572L44.8052 141.578L46.2889 143.754L157.013 68.634L155.529 66.4572Z" fill="white"/>
<path d="M159.202 71.8618L48.4785 146.982L49.9622 149.159L160.686 74.0386L159.202 71.8618Z" fill="white"/>
<path d="M162.876 77.2658L52.1521 152.386L53.6358 154.563L164.359 79.4426L162.876 77.2658Z" fill="white"/>
<path d="M166.586 82.6768L55.8623 157.797L57.346 159.974L168.07 84.8536L166.586 82.6768Z" fill="white"/>
<path d="M170.26 88.0816L59.5359 163.202L61.0196 165.379L171.743 90.2585L170.26 88.0816Z" fill="white"/>
<path d="M173.948 93.5072L63.2244 168.628L64.708 170.804L175.432 95.684L173.948 93.5072Z" fill="white"/>
<path d="M177.643 98.8962L66.9197 174.017L68.4034 176.193L179.127 101.073L177.643 98.8962Z" fill="white"/>
<path d="M181.317 104.301L70.593 179.421L72.0767 181.598L182.8 106.478L181.317 104.301Z" fill="white"/>
<path d="M185.005 109.727L74.2815 184.847L75.7652 187.024L186.489 111.904L185.005 109.727Z" fill="white"/>
<path d="M417.805 513H110.501C106.877 513 103.945 510.075 103.945 506.459C103.945 502.842 106.877 499.917 110.501 499.917H417.805C421.429 499.917 424.361 502.842 424.361 506.459C424.388 510.048 421.429 513 417.805 513Z" fill="#1E1963"/>
<defs>
<linearGradient id="paint0_linear" x1="222.037" y1="236.792" x2="201.27" y2="236.39" gradientUnits="userSpaceOnUse">
<stop offset="0.2059" stop-color="#1E406A"/>
<stop offset="0.4274" stop-color="#1A3D64"/>
<stop offset="0.7148" stop-color="#103654"/>
<stop offset="0.9994" stop-color="#012C3D"/>
</linearGradient>
<linearGradient id="paint1_linear" x1="190.075" y1="273.094" x2="213.564" y2="273.549" gradientUnits="userSpaceOnUse">
<stop offset="0.2059" stop-color="#1E406A"/>
<stop offset="0.4274" stop-color="#1A3D64"/>
<stop offset="0.7148" stop-color="#103654"/>
<stop offset="0.9994" stop-color="#012C3D"/>
</linearGradient>
<linearGradient id="paint2_linear" x1="194.178" y1="273.173" x2="209.461" y2="273.469" gradientUnits="userSpaceOnUse">
<stop offset="0.2059" stop-color="#1E406A"/>
<stop offset="0.4274" stop-color="#1A3D64"/>
<stop offset="0.7148" stop-color="#103654"/>
<stop offset="0.9994" stop-color="#012C3D"/>
</linearGradient>
<linearGradient id="paint3_linear" x1="270.096" y1="227.751" x2="284.415" y2="227.367" gradientUnits="userSpaceOnUse">
<stop offset="0.2059" stop-color="#1E406A"/>
<stop offset="0.4274" stop-color="#1A3D64"/>
<stop offset="0.7148" stop-color="#103654"/>
<stop offset="0.9994" stop-color="#012C3D"/>
</linearGradient>
<linearGradient id="paint4_linear" x1="265.735" y1="272.722" x2="301.474" y2="271.765" gradientUnits="userSpaceOnUse">
<stop offset="0.2059" stop-color="#1E406A"/>
<stop offset="0.4274" stop-color="#1A3D64"/>
<stop offset="0.7148" stop-color="#103654"/>
<stop offset="0.9994" stop-color="#012C3D"/>
</linearGradient>
</defs>
</svg>
