<svg width="564" height="437" viewBox="0 0 564 437" fill="none" xmlns="http://www.w3.org/2000/svg">
<path d="M334.104 82.4359C326.093 51.5752 303.443 23.1924 274.367 9.66328C251.846 -0.818257 225.497 -2.869 201.619 3.98103C183.24 9.26452 165.988 20.0879 155.592 36.1092C137.026 64.7198 151.85 95.9793 160.533 125.202C165.56 142.149 168.187 160.962 160.89 177.069C145.652 210.735 101.338 217.115 79.6308 245.284C51.5543 281.713 28.7761 331.13 65.8496 370.892C100.667 408.232 153.992 395.757 187.895 364.868C213.815 341.256 250.403 324.409 286.077 330.091C321.009 335.659 347.357 361.792 374.648 381.986C413.664 410.839 470.902 399.075 502.292 364.455C534.895 328.496 538.68 253.145 498.022 221.288C480.742 207.744 459.934 205.879 439.127 202.304C409.951 197.291 361.895 186.041 346.657 157.715C334.433 135 340.374 108.084 334.461 83.8458C334.347 83.3759 334.218 82.9059 334.104 82.4359Z" fill="#B7B7ED"/>
<path d="M562.443 393.55H532.053C534.253 392.34 535.766 390.032 535.766 387.355V334.89C535.766 330.974 532.582 327.798 528.654 327.798H490.439C486.511 327.798 483.327 324.623 483.327 320.706V279.307C483.327 275.391 480.142 272.215 476.215 272.215H457.264C453.336 272.215 450.152 275.391 450.152 279.307V296.567C450.152 300.484 446.967 303.659 443.04 303.659H407.951C404.024 303.659 400.839 306.835 400.839 310.752V387.369C400.839 390.047 402.353 392.354 404.552 393.564H397.141C399.34 392.354 400.854 390.047 400.854 387.369V347.665C400.854 343.749 397.669 340.573 393.742 340.573H362.923C358.996 340.573 355.811 337.397 355.811 333.481V291.754C355.811 287.837 352.627 284.662 348.699 284.662H309.113C305.185 284.662 302.001 287.837 302.001 291.754V306.536C302.001 310.453 298.816 313.628 294.889 313.628H287.205C283.278 313.628 280.094 316.804 280.094 320.72C280.094 324.637 276.909 327.813 272.982 327.813H234.766C230.838 327.813 227.654 324.637 227.654 320.72V279.321C227.654 275.405 224.469 272.229 220.542 272.229H201.591C197.663 272.229 194.479 275.405 194.479 279.321V296.582C194.479 300.498 191.294 303.674 187.367 303.674H152.278C148.351 303.674 145.166 306.849 145.166 310.766V387.384C145.166 390.061 146.68 392.368 148.88 393.579H141.468C143.667 392.368 145.181 390.061 145.181 387.384V347.679C145.181 343.763 141.996 340.587 138.069 340.587H107.25C103.323 340.587 100.138 337.411 100.138 333.495V291.768C100.138 287.852 96.9538 284.676 93.0265 284.676H53.3681C49.4409 284.676 46.2562 287.852 46.2562 291.768V306.55C46.2562 310.467 43.0715 313.643 39.1443 313.643H31.4611C27.5338 313.643 24.3491 316.818 24.3491 320.735V387.398C24.3491 390.075 25.8629 392.382 28.0622 393.593H1.57091C0.699773 393.593 0 394.291 0 395.159C0 396.028 0.699773 396.726 1.57091 396.726H562.429C563.3 396.726 564 396.028 564 395.159C564 394.291 563.315 393.55 562.443 393.55Z" fill="#5C5CBC"/>
<path d="M379.917 132.465H499.606C499.435 125.388 500.335 118.951 493.908 114.436C488.867 110.89 481.898 109.679 478.242 115.376C472.972 108.141 470.959 98.6568 462.733 93.2024C453.293 86.9505 439.726 88.574 433.528 98.201C430.915 95.7516 429.629 91.821 426.616 89.5424C420.918 85.2131 412.406 87.1072 406.965 91.3653C399.496 97.2042 399.911 108.654 399.554 117.213C389.985 108.654 378.146 119.534 379.917 132.465Z" fill="#5C5CBC"/>
<path d="M4.34103 180.416H124.03C123.859 173.338 124.759 166.901 118.332 162.386C113.291 158.84 106.322 157.63 102.666 163.326C97.3961 156.092 95.3825 146.607 87.1566 141.153C77.7169 134.901 64.1499 136.524 57.9519 146.151C55.3385 143.702 54.0532 139.771 51.0399 137.493C45.3418 133.163 36.8303 135.057 31.3893 139.316C23.9203 145.154 24.3344 156.604 23.9774 165.163C14.4091 156.604 2.57018 167.485 4.34103 180.416Z" fill="#5C5CBC"/>
<path d="M354.283 70.132C357.777 70.132 360.61 67.3074 360.61 63.8231C360.61 60.3388 357.777 57.5143 354.283 57.5143C350.789 57.5143 347.957 60.3388 347.957 63.8231C347.957 67.3074 350.789 70.132 354.283 70.132Z" fill="#B7B7ED"/>
<path d="M101.181 106.86C108.35 106.86 114.162 101.064 114.162 93.9148C114.162 86.7653 108.35 80.9695 101.181 80.9695C94.0114 80.9695 88.1995 86.7653 88.1995 93.9148C88.1995 101.064 94.0114 106.86 101.181 106.86Z" fill="#B7B7ED"/>
<path d="M459.092 178.279C463.537 173.846 463.537 166.66 459.092 162.227C454.648 157.795 447.441 157.795 442.996 162.227C438.551 166.66 438.551 173.846 442.996 178.279C447.441 182.711 454.648 182.711 459.092 178.279Z" fill="#B7B7ED"/>
<path d="M214.258 41.6208C217.752 41.6208 220.585 38.7963 220.585 35.312C220.585 31.8277 217.752 29.0031 214.258 29.0031C210.764 29.0031 207.932 31.8277 207.932 35.312C207.932 38.7963 210.764 41.6208 214.258 41.6208Z" fill="#E5E5FD"/>
<path d="M318.724 118.495C318.724 115.846 316.582 113.71 313.925 113.71C311.269 113.71 309.127 115.846 309.127 118.495C309.127 121.144 311.269 123.28 313.925 123.28C316.567 123.28 318.724 121.129 318.724 118.495Z" fill="#E5E5FD"/>
<path d="M191.437 139.757C191.437 137.108 189.295 134.972 186.638 134.972C183.982 134.972 181.84 137.108 181.84 139.757C181.84 142.406 183.982 144.542 186.638 144.542C189.295 144.542 191.437 142.406 191.437 139.757Z" fill="#E5E5FD"/>
<path d="M282.007 437C386.883 437 471.902 434.035 471.902 430.378C471.902 426.721 386.883 423.756 282.007 423.756C177.131 423.756 92.1125 426.721 92.1125 430.378C92.1125 434.035 177.131 437 282.007 437Z" fill="#B1B8CA"/>
<path d="M309.127 350.57L308.213 353.361L298.745 350.684L309.127 350.57Z" fill="#C62828"/>
<path d="M388.672 269.182L388.386 266.476L368.907 206.064L363.238 214.367C362.524 215.421 361.067 215.606 360.096 214.794C359.625 214.367 359.367 213.783 359.367 213.185C359.367 212.758 359.496 212.331 359.782 211.96L360.339 211.163C359.953 211.405 359.496 211.505 359.025 211.505C358.182 211.505 357.411 211.134 356.897 210.565C356.14 211.02 355.326 211.362 354.469 211.59L368.464 240.101C381.989 266.846 379.561 298.86 362.181 323.298L353.155 336.016C351.884 337.796 350.77 339.676 349.628 341.57C349.414 341.911 349.214 342.239 348.999 342.581C346.1 347.323 340.916 350.314 335.218 350.357L326.764 350.428L311.183 350.57H309.113L308.213 353.361L337.775 365.153C339.745 365.965 341.145 367.788 341.359 369.938C341.388 370.138 341.388 370.323 341.388 370.494C341.388 370.793 341.359 371.092 341.316 371.391L342.759 371.676C355.654 370.308 366.808 362.162 372.078 350.328L374.634 344.56L381.06 330.12L383.602 321.732C388.758 304.728 390.486 286.841 388.672 269.182Z" fill="#A80F5C"/>
<path d="M405.952 278.338C404.552 277.996 403.353 277.142 402.539 275.974C394.527 264.424 388.672 251.493 385.302 237.865L377.561 206.676C374.534 203.714 372.663 199.627 372.663 195.098C372.663 191.538 373.805 188.277 375.762 185.599C375.762 185.599 359.424 186.24 354.455 195.525L355.383 195.226C357.811 194.429 360.481 195.013 362.352 196.75L368.536 202.561C369.521 203.486 369.678 204.967 368.921 206.078L388.401 266.489L388.686 269.195C390.486 286.854 388.772 304.741 383.616 321.731L381.074 330.119L374.648 344.56L372.092 350.327C366.822 362.162 355.669 370.308 342.773 371.675L341.33 371.39C341.002 373.469 339.574 375.25 337.503 375.962L330.777 378.255C324.522 380.405 317.895 381.345 311.283 381.06C310.483 381.017 309.712 380.975 308.912 380.889L273.353 377.756C271.239 377.557 269.468 376.304 268.54 374.523C268.069 373.626 267.826 372.601 267.897 371.518C268.583 359.855 273.338 349.63 273.338 349.63L275.338 351.538L277.037 347.85C273.453 346.668 269.982 345.144 266.669 343.264C254.116 336.101 247.533 323.283 247.533 310.324C247.533 305.781 248.332 301.21 249.989 296.909C251.96 291.696 255.144 286.84 259.6 282.696L281.336 262.459L227.496 263.613C227.496 263.613 222.055 264.168 216.3 263.741L153.964 267.059C153.592 267.088 153.235 267.13 152.892 267.173C147.537 267.985 143.481 272.599 143.481 278.11C143.481 278.11 130.714 281.671 115.99 293.69C113.048 296.111 110.021 298.86 106.979 301.993C102.566 306.564 98.1676 311.962 94.0547 318.285C86.9427 329.222 80.7019 342.951 76.7461 360.125L84.1151 348.633C99.8242 324.152 121.431 303.987 146.966 289.959C156.877 284.533 167.859 281.799 178.87 281.799C188.052 281.799 197.264 283.707 205.861 287.538C224.869 296.011 235.522 314.425 235.522 333.267C235.522 344.004 232.038 354.913 224.669 364.198L214.972 376.417L214.672 382.441L310.969 387.098L327.306 387.896C346.029 388.793 363.48 378.995 372.492 362.903C373.263 361.55 373.948 360.14 374.605 358.701L380.789 349.16C387.472 338.892 391.857 327.485 393.813 315.693C400.754 310.096 409.037 306.066 418.077 304.186V304.157C419.348 301.566 419.919 298.86 419.919 296.182C419.933 288.065 414.492 280.46 405.952 278.338Z" fill="#E51B77"/>
<path d="M235.523 333.253C235.523 343.991 232.038 354.899 224.669 364.185L214.972 376.404L214.672 382.428L204.59 381.929C204.676 380.776 204.718 379.594 204.718 378.412C204.718 349.715 181.397 326.445 152.607 326.445C124.316 326.445 101.324 348.89 100.538 376.902L89.8705 376.389C81.2876 376.389 74.804 368.457 76.7177 360.097L84.0867 348.605C99.7958 324.124 121.403 303.958 146.937 289.931C156.848 284.505 167.831 281.771 178.841 281.771C188.024 281.771 197.235 283.679 205.847 287.51C224.855 295.998 235.523 314.412 235.523 333.253Z" fill="#A80F5C"/>
<path d="M152.607 326.46C124.316 326.46 101.324 348.904 100.538 376.916L118.504 377.799L137.069 378.682L168.016 380.177L186.61 381.075L204.561 381.929C204.647 380.775 204.69 379.593 204.69 378.411C204.718 349.715 181.397 326.46 152.607 326.46Z" fill="#FF83C1"/>
<path d="M167.088 367.489C167.073 367.489 167.045 367.489 167.031 367.489L120.546 364.954C119.946 364.925 119.503 364.412 119.532 363.829C119.56 363.23 120.089 362.746 120.66 362.817L167.145 365.352C167.745 365.381 168.187 365.894 168.159 366.477C168.13 367.047 167.645 367.489 167.088 367.489Z" fill="white"/>
<path d="M171.358 363.23C171.344 363.23 171.315 363.23 171.301 363.23L124.816 360.695C124.216 360.667 123.774 360.154 123.802 359.57C123.831 358.972 124.345 358.502 124.93 358.559L171.415 361.094C172.015 361.122 172.458 361.635 172.429 362.219C172.4 362.789 171.915 363.23 171.358 363.23Z" fill="white"/>
<path d="M175.628 358.972C175.614 358.972 175.585 358.972 175.571 358.972L129.086 356.437C128.486 356.409 128.044 355.896 128.072 355.312C128.101 354.714 128.615 354.244 129.201 354.301L175.685 356.836C176.285 356.864 176.728 357.377 176.699 357.961C176.656 358.531 176.185 358.972 175.628 358.972Z" fill="white"/>
<path d="M179.626 354.971C179.612 354.971 179.584 354.971 179.569 354.971L133.085 352.436C132.485 352.407 132.042 351.895 132.071 351.311C132.099 350.712 132.613 350.243 133.199 350.299L179.684 352.834C180.269 352.863 180.726 353.376 180.698 353.96C180.669 354.529 180.198 354.971 179.626 354.971Z" fill="white"/>
<path d="M205.861 287.538C214.087 290.928 221.441 296.624 226.74 303.901C229.482 307.476 231.481 311.563 233.238 315.707C234.708 319.965 235.894 324.366 236.208 328.895C236.979 337.881 235.551 347.166 231.495 355.312C229.482 359.357 226.84 363.145 224.055 366.605L215.715 377.002L214.986 375.492C223.412 375.506 231.838 375.706 240.264 375.805C248.69 375.933 257.115 376.147 265.541 376.418C257.115 376.688 248.69 376.902 240.264 377.03C231.838 377.13 223.412 377.343 214.986 377.343C214.472 377.343 214.044 376.93 214.044 376.418C214.044 376.204 214.115 375.99 214.244 375.834L222.484 365.352C225.24 361.863 227.654 358.303 229.567 354.372C233.495 346.597 234.98 337.71 234.323 329.051C234.08 324.694 232.938 320.45 231.681 316.277C230.096 312.218 228.282 308.188 225.711 304.628C220.727 297.407 213.872 291.44 205.861 287.538Z" fill="#6D0944"/>
<path d="M281.322 262.445L259.586 282.682C255.13 286.826 251.96 291.682 249.975 296.895C226.825 290.073 216.272 263.727 216.272 263.727C222.027 264.154 227.468 263.599 227.468 263.599L281.322 262.445Z" fill="#A80F5C"/>
<path d="M430.016 302.919C425.931 302.919 421.932 303.346 418.091 304.144V304.158C409.037 306.038 400.768 310.068 393.827 315.665C391.871 327.456 387.487 338.864 380.803 349.132L374.619 358.673C373.977 360.112 373.291 361.521 372.506 362.874C372.706 367.574 373.448 372.088 374.719 376.404L383.688 373.313L403.567 366.477L453.265 349.345L473.144 342.481L483.484 338.921C474.944 317.815 454.236 302.919 430.016 302.919Z" fill="#FF83C1"/>
<path d="M473.13 342.495C482.113 351.823 487.611 364.483 487.611 378.426C487.611 407.122 464.29 430.392 435.5 430.392C406.724 430.392 383.388 407.136 383.388 378.426C383.388 376.717 383.474 374.993 383.645 373.327L403.525 366.491C402.125 370.194 401.354 374.224 401.354 378.426C401.354 397.224 416.635 412.462 435.485 412.462C454.336 412.462 469.603 397.224 469.603 378.426C469.603 366.107 463.048 355.312 453.223 349.359L473.13 342.495Z" fill="#3F1085"/>
<path d="M453.251 349.345C463.076 355.298 469.631 366.093 469.631 378.411C469.631 397.21 454.365 412.448 435.514 412.448C416.663 412.448 401.382 397.21 401.382 378.411C401.382 374.21 402.153 370.18 403.553 366.477L453.251 349.345ZM451.052 378.411C451.052 369.852 444.083 362.917 435.514 362.917C426.917 362.917 419.976 369.867 419.976 378.411C419.976 386.97 426.917 393.906 435.514 393.906C444.097 393.92 451.052 386.97 451.052 378.411Z" fill="#E5E5FD"/>
<path d="M435.514 393.906C444.095 393.906 451.052 386.969 451.052 378.411C451.052 369.854 444.095 362.917 435.514 362.917C426.933 362.917 419.976 369.854 419.976 378.411C419.976 386.969 426.933 393.906 435.514 393.906Z" fill="#3A3635"/>
<path d="M435.514 393.906C444.095 393.906 451.052 386.969 451.052 378.411C451.052 369.854 444.095 362.917 435.514 362.917C426.933 362.917 419.976 369.854 419.976 378.411C419.976 386.969 426.933 393.906 435.514 393.906Z" fill="#3F1085"/>
<path d="M186.639 381.074L204.59 381.929C202.791 408.987 180.212 430.377 152.607 430.377C123.831 430.377 100.496 407.121 100.496 378.411C100.496 377.913 100.496 377.4 100.539 376.916L118.504 377.799C118.476 378.012 118.476 378.212 118.476 378.425C118.476 397.224 133.742 412.462 152.593 412.462C170.558 412.462 185.282 398.634 186.639 381.074Z" fill="#3F1085"/>
<path d="M168.045 380.177L186.639 381.074C185.282 398.633 170.558 412.462 152.607 412.462C133.756 412.462 118.49 397.224 118.49 378.425C118.49 378.211 118.49 378.012 118.518 377.798L137.084 378.681C137.212 387.126 144.11 393.92 152.607 393.92C160.604 393.92 167.188 387.896 168.045 380.177Z" fill="#E5E5FD"/>
<path d="M137.098 378.668L168.045 380.163C167.188 387.882 160.605 393.906 152.607 393.906C144.124 393.92 137.227 387.127 137.098 378.668Z" fill="#3F1085"/>
<path d="M400.968 178.963V211.219H392.957C394.142 196.879 392.928 178.963 392.928 178.963H400.968Z" fill="#FF83C1"/>
<path d="M377.561 206.677C374.534 203.714 372.663 199.627 372.663 195.098C372.663 191.538 373.806 188.277 375.762 185.6C376.262 184.916 376.79 184.275 377.39 183.677C380.332 180.757 384.373 178.963 388.829 178.963H392.928C392.928 178.963 394.127 196.879 392.956 211.219H388.829C384.459 211.219 380.489 209.482 377.561 206.677Z" fill="#A80F5C"/>
<path d="M191.622 260.152V265.051L153.135 267.13L151.479 267.472L128.229 260.152H191.622Z" fill="#3A3635"/>
<path d="M191.622 234.518V260.152H128.229H94.0403V188.149H191.622V234.518Z" fill="#E51B77"/>
<path d="M185.096 214.495H99.4812V219.55H185.096V214.495Z" fill="#A80F5C"/>
<path d="M185.096 229.419H99.4812V234.475H185.096V229.419Z" fill="#A80F5C"/>
<path d="M185.096 244.359H99.4812V249.414H185.096V244.359Z" fill="#A80F5C"/>
<path d="M151.635 203.743H131.571C127.415 203.743 124.03 200.382 124.03 196.223V192.421H159.176V196.223C159.176 200.382 155.806 203.743 151.635 203.743Z" fill="#A80F5C"/>
<path d="M97.6821 192.435C104.965 191.994 112.249 191.78 119.532 191.609C126.815 191.41 134.099 191.382 141.382 191.353C148.665 191.382 155.949 191.41 163.232 191.595L174.157 191.894C177.799 192.079 181.44 192.179 185.082 192.421C181.44 192.663 177.799 192.763 174.157 192.948L163.232 193.247C155.949 193.447 148.665 193.475 141.382 193.489C134.099 193.461 126.815 193.432 119.532 193.233C112.249 193.076 104.965 192.877 97.6821 192.435Z" fill="#6D0944"/>
<path d="M338.36 261.705L342.759 317.687L333.648 320.009L317.867 323.996L338.36 261.705Z" fill="#2E0968"/>
<path d="M336.147 233.55L336.561 238.862C332.648 232.909 326.05 228.679 318.138 228.252L247.476 224.293L250.146 221.245C251.332 219.921 252.988 219.124 254.773 219.038L315.196 216.403L316.653 216.332C326.721 215.919 335.347 223.524 336.147 233.55Z" fill="#2E0968"/>
<path d="M333.647 320.009L337.403 336.358L333.833 342.567C332.305 345.244 329.534 346.654 326.735 346.654C324.736 346.654 322.737 345.942 321.151 344.447L317.024 340.587L315.239 331.943V331.914L317.867 323.968L333.647 320.009Z" fill="#D8667C"/>
<path d="M341.359 335.503C340.045 334.563 338.203 334.947 337.403 336.357L333.833 342.566C332.305 345.244 329.534 346.654 326.735 346.654C324.736 346.654 322.737 345.942 321.151 344.446L317.024 340.587L314.911 338.621L311.169 350.541V350.57L326.778 350.413L335.232 350.342C340.931 350.299 346.115 347.294 349.014 342.566C349.228 342.225 349.428 341.897 349.642 341.555L341.359 335.503Z" fill="#303D89"/>
<path d="M286.448 68.4943C286.563 71.5419 287.262 76.7969 290.504 80.9696C288.533 81.055 286.334 81.525 284.749 82.6216C283.849 83.2482 283.007 84.0599 282.021 84.5299C279.308 85.8828 276.523 84.658 273.81 84.9429C272.824 85.0568 271.839 85.9255 271.268 86.8085C271.153 86.9794 271.096 87.136 271.025 87.3069L270.182 87.0933L272.467 78.0928C273.153 75.4155 275.324 73.436 278.037 72.8378C280.193 72.3394 283.05 71.1431 286.448 68.4943Z" fill="#FD97A7"/>
<path d="M280.593 102.431C280.136 102.345 279.708 102.232 279.308 102.089C279.151 102.046 279.008 102.004 278.851 101.932C278.851 101.932 275.923 102.559 272.796 105.08C269.854 107.458 266.712 111.56 265.684 118.481L256.715 109.537C253.916 106.774 250.26 105.094 246.376 104.838V104.809L252.245 98.8279C255.387 95.6094 257.829 91.7927 259.443 87.5916L261.143 83.1056C261.814 83.5613 262.628 83.8176 263.485 83.8176C264.67 83.8176 265.741 83.3477 266.498 82.5502L265.355 85.313C264.813 86.5947 265.427 88.1042 266.712 88.6596C267.041 88.7878 267.383 88.859 267.726 88.859C268.783 88.859 269.768 88.2324 270.154 87.1928L270.197 87.0646L271.039 87.2782C270.739 88.2894 271.639 88.9445 272.025 90.0838C272.839 92.4905 273.124 94.7834 274.538 97.005C275.095 97.888 275.381 98.657 276.081 99.3833C277.394 100.708 278.88 101.633 280.579 102.388L280.593 102.431Z" fill="#FD97A7"/>
<path d="M284.092 77.7084C284.771 77.7084 285.321 77.1601 285.321 76.4837C285.321 75.8073 284.771 75.2589 284.092 75.2589C283.414 75.2589 282.864 75.8073 282.864 76.4837C282.864 77.1601 283.414 77.7084 284.092 77.7084Z" fill="#042128"/>
<path d="M285.52 72.0971C284.992 72.6098 284.506 72.9516 284.063 73.2934C283.621 73.6494 283.164 73.8773 282.807 74.2475C282.335 74.4612 282.007 74.8314 281.564 75.1305C281.107 75.4296 280.707 75.8283 280.079 76.2413L279.965 76.1986C280.336 75.0308 281.064 73.9485 282.078 73.2222C283.107 72.5101 284.292 72.0971 285.52 71.9547V72.0971Z" fill="#1C54D1"/>
<path d="M273.796 98.6144C274.881 99.7395 276.109 100.765 277.523 101.42C277.951 101.619 278.394 101.79 278.837 101.947C278.837 101.947 275.909 102.573 272.782 105.094C265.398 100.167 267.284 91.8499 267.284 91.8499L273.796 98.6144Z" fill="#D8667C"/>
<path d="M286.491 66.0162C281.693 66.6856 275.552 66.2298 267.726 63.8231L238.921 83.1342C238.921 83.1342 238.364 96.4924 252.245 98.8422C252.26 98.828 252.26 98.828 252.274 98.8137C255.687 100.01 259.329 96.9766 259.814 93.6869C260.057 92.0349 260.1 90.5823 260.757 88.9873C261.3 87.6771 261.128 86.6517 261.043 85.3131C261 84.5868 261.114 83.9032 261.114 83.2054L261.143 83.1199C261.128 83.1057 261.128 83.1057 261.114 83.0914C261.114 82.9917 261.114 82.9063 261.114 82.8066C261 82.7924 260.871 82.8209 260.757 82.8209C259.843 82.0518 259.257 80.8983 259.257 79.6023C259.257 77.2668 261.143 75.3727 263.499 75.3727C265.841 75.3727 267.74 77.2525 267.74 79.6023L266.512 82.5645L265.37 85.3273C264.827 86.609 265.441 88.1186 266.726 88.674C267.055 88.8022 267.398 88.8734 267.74 88.8734C268.797 88.8734 269.783 88.2468 270.168 87.2072L270.211 87.079L272.496 78.0785C273.181 75.4012 275.352 73.4216 278.066 72.8235C280.222 72.3251 283.078 71.1288 286.477 68.4942C286.434 66.9988 286.52 66.0305 286.52 66.0305V66.0162H286.491Z" fill="#1C54D1"/>
<path d="M281.75 54.4238H302.629C302.629 54.4238 299.616 64.2787 286.491 66.0161C281.693 66.6855 275.552 66.2297 267.726 63.823L281.75 54.4238Z" fill="#FDBC0B"/>
<path d="M281.75 54.4236L267.712 63.837L238.907 83.1481L238.05 83.732C229.167 70.1886 232.124 60.7752 236.122 55.2923C238.464 52.0596 243.82 48.4138 247.476 46.7618C273.624 34.8846 281.75 54.4236 281.75 54.4236Z" fill="#F99410"/>
<path d="M250.446 48.1295C252.517 48.3004 254.545 48.8842 256.473 49.696C258.401 50.5077 260.2 51.647 261.799 53.0284C263.399 54.3956 264.77 56.0618 265.755 57.9274C266.826 59.7503 267.383 61.801 267.726 63.8233C266.955 61.9007 266.212 60.0066 265.056 58.3546C263.956 56.6742 262.642 55.1361 261.114 53.8402C258.072 51.1913 254.388 49.34 250.446 48.1295Z" fill="#AF680B"/>
<path d="M291.547 82.1803C292.275 82.9493 292.532 84.0601 291.533 84.4162L291.004 84.5586C288.962 85.2991 287.605 87.2502 287.605 89.4148V91.0953V98.6147C287.605 100.879 285.763 102.73 283.492 102.73C282.536 102.73 281.579 102.616 280.622 102.431H280.593C278.894 101.662 277.394 100.737 276.081 99.4122C275.367 98.6859 275.095 97.9168 274.538 97.0339C273.124 94.798 272.839 92.5052 272.025 90.1126C271.639 88.9734 270.739 88.3183 271.039 87.3071C271.111 87.1362 271.168 86.9796 271.282 86.8087C271.839 85.9257 272.824 85.057 273.824 84.9431C276.538 84.6583 279.322 85.883 282.036 84.5301C283.021 84.0601 283.864 83.2484 284.763 82.6218C286.349 81.5252 288.548 81.0552 290.519 80.9698C290.833 81.397 291.176 81.7815 291.547 82.1803Z" fill="white"/>
<path d="M274.438 85.9112C274.367 85.9112 274.31 85.8827 274.252 85.84L266.926 78.876C266.826 78.7763 266.812 78.6054 266.912 78.4915C267.026 78.3918 267.183 78.3776 267.298 78.4773L274.624 85.4412C274.724 85.5409 274.738 85.7118 274.638 85.8257C274.581 85.8827 274.509 85.9112 274.438 85.9112Z" fill="#424242"/>
<path d="M274.438 95.3533C274.367 95.3533 274.281 95.3248 274.238 95.2536L263.77 83.1771C263.67 83.0631 263.685 82.8922 263.799 82.7926C263.913 82.6929 264.084 82.7071 264.184 82.821L274.652 94.8976C274.752 95.0115 274.738 95.1824 274.624 95.2821C274.567 95.3248 274.495 95.3533 274.438 95.3533Z" fill="#424242"/>
<path d="M276.495 89.4716C277.494 89.6282 278.494 89.6424 279.479 89.614C280.465 89.5712 281.464 89.4716 282.421 89.2579C284.363 88.8877 286.22 88.1471 288.062 87.3069C287.248 87.8908 286.377 88.4462 285.449 88.8449C284.521 89.2864 283.535 89.5428 282.535 89.7849C280.536 90.1409 278.408 90.1836 276.495 89.4716Z" fill="#424242"/>
<path d="M275.995 92.6616C276.823 93.3167 277.708 93.8721 278.622 94.3848C279.536 94.8832 280.479 95.3247 281.464 95.6522C283.406 96.3785 285.491 96.6349 287.605 96.6918C286.563 96.8485 285.491 96.9624 284.42 96.8343C283.349 96.763 282.307 96.4925 281.279 96.1649C279.279 95.4101 277.38 94.2708 275.995 92.6616Z" fill="#424242"/>
<path d="M267.726 79.6309L266.498 82.5931C265.741 83.3906 264.67 83.8605 263.485 83.8605C262.628 83.8605 261.814 83.6042 261.143 83.1485C260 82.3937 259.258 81.112 259.258 79.6309C259.258 77.2953 261.143 75.4012 263.499 75.4012C265.827 75.4012 267.726 77.2953 267.726 79.6309Z" fill="#D8667C"/>
<path d="M270.668 160.265L247.476 165.876L260.029 194.6C260.029 194.6 259.386 210.337 254.759 219.038C252.974 219.124 251.317 219.921 250.132 221.246L247.462 224.293C245.976 224.208 244.534 224.763 243.506 225.817L222.527 247.421C220.728 249.287 218.614 250.825 216.286 252.007L203.348 258.486L200.805 257.561C198.978 256.891 197.407 255.766 196.221 254.299C195.036 252.847 194.251 251.081 193.979 249.173C193.294 244.302 192.951 239.403 192.951 234.504C192.951 228.181 193.508 221.858 194.665 215.62L205.675 156.092C207.046 148.573 209.346 141.281 212.473 134.36C215.615 127.439 219.571 120.902 224.298 114.878C226.811 111.688 229.996 109.181 233.566 107.444C237.108 105.735 241.064 104.781 245.148 104.781C245.562 104.781 245.948 104.795 246.348 104.852C250.232 105.108 253.888 106.775 256.687 109.552L265.656 118.495C266.841 119.677 266.984 121.543 266.027 122.896L263.856 125.915L270.668 160.265Z" fill="#FDBC0B"/>
<path d="M226.882 130.529C227.696 133.662 228.468 136.795 229.167 139.957C229.853 143.118 230.624 146.251 231.238 149.427L233.166 158.926L234.923 168.453L234.051 167.884C237.436 167.115 240.849 166.474 244.248 165.804C247.647 165.121 251.074 164.537 254.502 163.967C251.16 164.95 247.818 165.89 244.462 166.744C241.106 167.613 237.75 168.51 234.366 169.279L233.652 169.45L233.509 168.724L231.595 159.225L229.853 149.698C229.239 146.522 228.796 143.332 228.253 140.142C227.739 136.937 227.296 133.733 226.882 130.529Z" fill="#A34A0D"/>
<path d="M213.63 226.828C215.986 225.66 218.314 224.436 220.542 223.054C222.798 221.73 224.998 220.306 227.125 218.782C231.381 215.748 235.408 212.43 239.007 208.671C242.735 205.025 245.748 200.767 248.376 196.309L250.218 192.877C250.775 191.695 251.189 190.47 251.689 189.274L252.446 187.465L252.974 185.586C253.317 184.332 253.688 183.065 254.074 181.797C253.331 186.981 251.989 192.193 249.461 196.907C246.99 201.607 243.863 205.993 240.15 209.81C236.38 213.57 232.267 216.973 227.811 219.821C223.341 222.627 218.628 225.105 213.63 226.828Z" fill="#A34A0D"/>
<path d="M203.961 236.811C207.475 236.441 210.945 235.928 214.372 235.259C217.8 234.589 221.213 233.82 224.555 232.852C227.925 231.941 231.224 230.816 234.48 229.562C237.765 228.366 240.892 226.814 244.105 225.318C241.249 227.383 238.207 229.235 234.965 230.702C231.767 232.24 228.411 233.436 224.983 234.39C221.556 235.33 218.071 236.071 214.544 236.469C211.045 236.897 207.489 237.096 203.961 236.811Z" fill="#A34A0D"/>
<path d="M248.333 109.78C250.218 110.235 252.003 111.076 253.645 112.129C255.287 113.183 256.801 114.436 258.144 115.861C259.443 117.313 260.686 118.851 261.6 120.56C262.128 121.386 262.485 122.298 262.899 123.166C263.256 124.064 263.57 124.989 263.856 125.901C262.899 124.22 261.957 122.568 260.871 121.016L260.057 119.848L259.172 118.737C258.601 117.983 257.958 117.299 257.33 116.601C256.059 115.22 254.63 113.967 253.145 112.813C251.646 111.688 250.061 110.62 248.333 109.78Z" fill="#A34A0D"/>
<path d="M208.117 146.137C208.317 148.929 208.589 151.692 208.917 154.44C209.274 157.189 209.631 159.937 210.117 162.672C210.574 165.406 211.102 168.126 211.702 170.846C212.273 173.566 212.987 176.243 213.63 178.963C213.101 177.668 212.587 176.372 212.116 175.047C211.673 173.723 211.245 172.384 210.874 171.045C210.088 168.354 209.517 165.619 209.031 162.857C208.56 160.094 208.232 157.317 208.074 154.526C207.989 153.13 207.946 151.734 207.932 150.339C207.96 148.929 207.96 147.519 208.117 146.137Z" fill="#A34A0D"/>
<path d="M336.547 238.876C332.634 232.923 326.036 228.693 318.124 228.266L247.462 224.307C245.976 224.222 244.534 224.777 243.506 225.831L222.527 247.435C220.728 249.3 218.614 250.838 216.3 252.02L203.362 258.5C204.933 262.061 210.759 263.371 216.286 263.755C222.041 264.182 227.482 263.627 227.482 263.627L281.322 262.474L301.372 262.046L276.452 344.403L278.366 344.944L298.673 350.684L298.716 350.712L309.098 350.598L315.225 331.985V331.956L317.853 324.01L338.332 261.719L339.189 259.084C341.573 251.878 340.288 244.572 336.547 238.876Z" fill="#591C9D"/>
<path d="M341.359 369.923C341.388 370.123 341.388 370.308 341.388 370.479C341.388 370.778 341.359 371.077 341.316 371.376C340.988 373.455 339.56 375.235 337.489 375.947L330.763 378.24C324.508 380.39 317.881 381.33 311.269 381.046C310.469 381.003 309.698 380.96 308.898 380.875L273.339 377.742C271.225 377.542 269.454 376.289 268.526 374.509C268.055 373.612 267.812 372.586 267.883 371.504C268.569 359.84 273.324 349.615 273.324 349.615L275.324 351.523L276.609 352.762C280.622 356.593 286.663 357.377 291.504 354.671L298.659 350.669H298.702H298.73L308.213 353.346L337.775 365.138C339.745 365.964 341.145 367.787 341.359 369.923Z" fill="#4E58AF"/>
<path d="M278.38 344.916L277.023 347.85L275.324 351.538L276.609 352.777C280.622 356.608 286.663 357.391 291.504 354.686L298.659 350.684L298.687 350.655L278.38 344.916Z" fill="#FD97A7"/>
<path d="M339.346 371.661C338.003 372.302 336.561 372.644 335.147 373.085L330.891 374.31L322.323 376.56C319.424 377.315 316.396 377.571 313.397 377.429C310.412 377.201 307.499 376.902 304.557 376.645C298.688 376.033 292.804 375.463 286.934 374.794L278.137 373.783C277.395 373.683 276.681 373.626 275.924 373.484C275.181 373.341 274.467 373.085 273.796 372.757C273.125 372.43 272.496 372.003 271.939 371.504C271.382 371.006 270.925 370.422 270.44 369.866C271.439 370.949 272.553 371.946 273.91 372.487C274.581 372.772 275.281 372.971 275.995 373.071C276.695 373.17 277.452 373.185 278.194 373.242L287.034 373.954C292.918 374.438 298.802 375.022 304.686 375.549C307.613 375.834 310.584 376.19 313.483 376.432C316.382 376.617 319.309 376.346 322.151 375.734L330.791 373.783L335.104 372.8L337.261 372.273C337.946 372.102 338.674 371.974 339.346 371.661Z" fill="#303D89"/>
<path d="M368.536 202.561C369.521 203.487 369.678 204.968 368.921 206.079L363.252 214.367C362.538 215.421 361.081 215.606 360.11 214.794C359.639 214.367 359.382 213.783 359.382 213.185C359.382 212.758 359.51 212.33 359.796 211.96L360.353 211.163C361.153 210.778 361.724 210.009 361.852 209.083L362.795 207.759C363.209 207.204 362.952 206.406 362.281 206.193L360.61 205.651C359.582 205.31 358.453 205.409 357.497 205.936L346.857 211.59C346.443 211.804 346.015 211.96 345.586 212.046C344.601 212.288 343.544 212.174 342.602 211.761L336.561 209.126L318.181 210.408C317.11 210.493 316.01 210.536 314.939 210.579C308.613 210.792 302.3 210.379 296.088 209.311L273.996 205.495C267.798 204.441 262.556 200.325 260.043 194.586L247.49 165.861L270.682 160.25L273.781 171.23C275.181 176.144 278.623 180.231 283.235 182.438L297.588 189.345C303.429 192.151 309.627 194.216 315.982 195.455L335.218 199.186C338.617 199.827 342.145 199.613 345.429 198.517L354.455 195.512L355.383 195.213C357.811 194.415 360.481 194.999 362.352 196.736L368.536 202.561Z" fill="#FD97A7"/>
<path d="M362.281 206.207C362.952 206.42 363.209 207.218 362.795 207.773L361.852 209.098C361.881 208.941 361.895 208.799 361.895 208.642C361.895 207.061 360.624 205.794 359.039 205.794C357.454 205.794 356.154 207.061 356.154 208.642C356.154 209.397 356.44 210.052 356.911 210.565C356.154 211.02 355.34 211.362 354.483 211.59C350.285 212.829 345.586 212.06 345.586 212.06V212.031C346.015 211.946 346.443 211.789 346.857 211.576L357.497 205.922C358.468 205.409 359.582 205.295 360.61 205.637L362.281 206.207Z" fill="#D8667C"/>
<path d="M359.039 205.794C357.454 205.794 356.154 207.061 356.154 208.642C356.154 209.397 356.44 210.052 356.911 210.565C357.425 211.148 358.197 211.505 359.039 211.505C359.51 211.505 359.967 211.391 360.353 211.163C361.153 210.778 361.724 210.009 361.853 209.084C361.881 208.927 361.895 208.784 361.895 208.628C361.895 207.061 360.624 205.794 359.039 205.794Z" fill="#3A3635"/>
<path d="M273.981 205.523C270.197 205.267 266.498 203.586 263.613 200.966C262.185 199.642 260.957 198.089 260.029 196.38C259.086 194.629 258.444 192.934 257.672 191.197C256.187 187.75 254.731 184.29 253.374 180.8C251.974 177.326 250.632 173.822 249.389 170.262C251.16 173.58 252.817 176.955 254.416 180.345C256.059 183.72 257.601 187.138 259.129 190.57C259.915 192.25 260.614 194.073 261.414 195.64C262.271 197.206 263.299 198.716 264.57 199.998C267.055 202.632 270.34 204.512 273.981 205.523Z" fill="#A34A0D"/>
<path d="M173.8 149.983H102.223V188.163H173.8V149.983Z" fill="#F99410"/>
<path d="M142.282 149.982H133.741V170.262H142.282V149.982Z" fill="#AF680B"/>
<path d="M169.83 155.806H153.449V162.557H169.83V155.806Z" fill="#FFE8CA"/>
<path d="M216.286 81.6953H138.026C137.626 81.6953 137.312 81.382 137.312 80.9832C137.312 80.5845 137.626 80.2712 138.026 80.2712H216.286C216.686 80.2712 217 80.5845 217 80.9832C217 81.3678 216.672 81.6953 216.286 81.6953Z" fill="#3F1085"/>
<path d="M224.384 90.7531H178.085C177.685 90.7531 177.371 90.4398 177.371 90.041C177.371 89.6423 177.685 89.329 178.085 89.329H224.384C224.784 89.329 225.098 89.6423 225.098 90.041C225.098 90.4256 224.784 90.7531 224.384 90.7531Z" fill="#3F1085"/>
<path d="M114.148 244.971H53.0397C52.6399 244.971 52.3257 244.658 52.3257 244.259C52.3257 243.86 52.6399 243.547 53.0397 243.547H114.148C114.548 243.547 114.862 243.86 114.862 244.259C114.862 244.658 114.548 244.971 114.148 244.971Z" fill="#3F1085"/>
<path d="M73.99 233.706H27.6767C27.2768 233.706 26.9626 233.393 26.9626 232.994C26.9626 232.595 27.2768 232.282 27.6767 232.282H73.9757C74.3756 232.282 74.6898 232.595 74.6898 232.994C74.7041 233.393 74.3756 233.706 73.99 233.706Z" fill="#3F1085"/>
<path d="M362.995 168.966H333.119C332.719 168.966 332.405 168.653 332.405 168.254C332.405 167.855 332.719 167.542 333.119 167.542H362.995C363.395 167.542 363.709 167.855 363.709 168.254C363.709 168.653 363.381 168.966 362.995 168.966Z" fill="#3F1085"/>
<path d="M354.797 158.428H303C302.6 158.428 302.286 158.114 302.286 157.715C302.286 157.317 302.6 157.003 303 157.003H354.812C355.212 157.003 355.526 157.317 355.526 157.715C355.511 158.114 355.197 158.428 354.797 158.428Z" fill="#3F1085"/>
<path d="M203.961 105.507H141.382C140.982 105.507 140.668 105.194 140.668 104.795C140.668 104.396 140.982 104.083 141.382 104.083H203.961C204.361 104.083 204.675 104.396 204.675 104.795C204.675 105.18 204.361 105.507 203.961 105.507Z" fill="#3F1085"/>
<path d="M82.1159 256.421H19.5366C19.1367 256.421 18.8225 256.108 18.8225 255.709C18.8225 255.311 19.1367 254.997 19.5366 254.997H82.1159C82.5158 254.997 82.83 255.311 82.83 255.709C82.83 256.108 82.5158 256.421 82.1159 256.421Z" fill="#3F1085"/>
</svg>
