<svg width="26" height="24" viewBox="0 0 26 24" fill="none" xmlns="http://www.w3.org/2000/svg">
<path fill-rule="evenodd" clip-rule="evenodd" d="M21.25 23.9998H4.75V22.1665H21.25V23.9998Z" fill="#AD75FF"/>
<path fill-rule="evenodd" clip-rule="evenodd" d="M9.78167 5.96923C8.27558 6.22957 7.17833 7.50557 6.99866 9.02357L5.66675 20.3334H20.3334L18.9987 9.00798C18.8209 7.49732 17.7337 6.22407 16.2359 5.9619C13.9901 5.56865 12.1182 5.56498 9.78167 5.96923ZM10.9192 9.9274C10.9433 9.68926 10.8733 9.45114 10.7241 9.26396C10.5749 9.07677 10.3584 8.95536 10.1209 8.92567C9.88341 8.89598 9.64371 8.96037 9.45305 9.10508C9.26238 9.24978 9.13588 9.46333 9.10058 9.70007L8.271 16.3349C8.25297 16.4558 8.2593 16.579 8.28961 16.6974C8.31991 16.8158 8.37358 16.9269 8.44746 17.0243C8.52134 17.1216 8.61394 17.2032 8.71981 17.2642C8.82568 17.3253 8.94268 17.3645 9.06394 17.3797C9.1852 17.3948 9.30827 17.3856 9.42591 17.3525C9.54354 17.3194 9.65337 17.2631 9.74894 17.187C9.84451 17.1108 9.92388 17.0163 9.9824 16.909C10.0409 16.8017 10.0774 16.6838 10.0897 16.5622L10.9192 9.9274Z" fill="#AD75FF"/>
<path d="M2.91675 12.9997C2.91675 13.3086 2.9305 13.6138 2.958 13.9163H0.166748V12.083H2.958C2.9305 12.3855 2.91675 12.6908 2.91675 12.9997Z" fill="#AD75FF"/>
<path d="M4.76098 7.18472C4.40744 7.68492 4.10031 8.21634 3.84339 8.77238L1.42798 7.37722L2.34465 5.78955L4.76098 7.18472Z" fill="#AD75FF"/>
<path d="M8.77147 3.84223C8.21322 4.10165 7.68247 4.40965 7.18563 4.76073L5.78955 2.3444L7.37722 1.42773L8.77147 3.84315V3.84223Z" fill="#AD75FF"/>
<path d="M13.0002 2.9165C12.6912 2.9165 12.386 2.93025 12.0835 2.95775V0.166504H13.9168V2.95775C13.612 2.93031 13.3062 2.91655 13.0002 2.9165Z" fill="#AD75FF"/>
<path d="M18.8154 4.76073C18.3152 4.40724 17.7838 4.1001 17.2278 3.84315L18.6229 1.42773L20.2106 2.3444L18.8154 4.76073Z" fill="#AD75FF"/>
<path d="M22.1575 8.77147C21.9002 8.21603 21.5928 7.68521 21.239 7.18563L23.6553 5.78955L24.572 7.37722L22.1566 8.77147H22.1575Z" fill="#AD75FF"/>
<path d="M23.0835 12.9997C23.0835 12.6908 23.0697 12.3855 23.0422 12.083H25.8335V13.9163H23.0422C23.0697 13.6138 23.0835 13.3086 23.0835 12.9997Z" fill="#AD75FF"/>
</svg>
